ISO-10303-21;
HEADER;
/* Generated by software containing ST-Developer
 * from STEP Tools, Inc. (www.steptools.com) 
 */

FILE_DESCRIPTION(
/* description */ (''),
/* implementation_level */ '2;1');

FILE_NAME(
/* name */ 'E-TKT_025-structure_P_press_2cm.step',
/* time_stamp */ '2026-09-28T14:58:37-04:00',
/* author */ (''),
/* organization */ (''),
/* preprocessor_version */ 'ST-DEVELOPER v20.2',
/* originating_system */ 'Autodesk Translation Framework v15.15.0.0',
/* authorisation */ '');

FILE_SCHEMA (('AUTOMOTIVE_DESIGN { 1 0 10303 214 3 1 1 }'));
ENDSEC;

DATA;
#10=MECHANICAL_DESIGN_GEOMETRIC_PRESENTATION_REPRESENTATION('',(#13),#1667);
#11=SHAPE_REPRESENTATION_RELATIONSHIP('SRR','None',#1674,#12);
#12=ADVANCED_BREP_SHAPE_REPRESENTATION('',(#14),#1666);
#13=STYLED_ITEM('',(#1684),#14);
#14=MANIFOLD_SOLID_BREP('Body1',#953);
#15=(
BOUNDED_SURFACE()
B_SPLINE_SURFACE(1,2,((#1506,#1507,#1508),(#1509,#1510,#1511)),
 .UNSPECIFIED.,.F.,.F.,.F.)
B_SPLINE_SURFACE_WITH_KNOTS((2,2),(3,3),(0.,1.),(2.20984710128077E-6,10.2166340956214),
 .UNSPECIFIED.)
GEOMETRIC_REPRESENTATION_ITEM()
RATIONAL_B_SPLINE_SURFACE(((1.,0.776869166550245,1.),(1.,0.776869166550245,
1.)))
REPRESENTATION_ITEM('')
SURFACE()
);
#16=(
BOUNDED_SURFACE()
B_SPLINE_SURFACE(2,1,((#1620,#1621),(#1622,#1623),(#1624,#1625)),
 .UNSPECIFIED.,.F.,.F.,.F.)
B_SPLINE_SURFACE_WITH_KNOTS((3,3),(2,2),(2.38962698989775E-6,10.2147872171446),
(0.,1.),.UNSPECIFIED.)
GEOMETRIC_REPRESENTATION_ITEM()
RATIONAL_B_SPLINE_SURFACE(((1.,1.),(0.776946729904686,0.776946729904686),
(1.,1.)))
REPRESENTATION_ITEM('')
SURFACE()
);
#17=CONICAL_SURFACE('',#1007,9.55000000064208,0.78539816268776);
#18=CONICAL_SURFACE('',#1011,3.45000000000004,0.785398163397443);
#19=CONICAL_SURFACE('',#1015,4.54999999999966,0.785398163397467);
#20=CONICAL_SURFACE('',#1016,7.54999999999794,0.785398163397661);
#21=CONICAL_SURFACE('',#1018,5.44999999999879,0.785398163397687);
#22=CONICAL_SURFACE('',#1020,1.54999999999984,0.785398163397391);
#23=CONICAL_SURFACE('',#1022,1.54999999999933,0.785398163398011);
#24=CONICAL_SURFACE('',#1048,4.55000000539586,0.785398157401115);
#25=CONICAL_SURFACE('',#1049,5.45000000070576,0.785398164181894);
#26=CONICAL_SURFACE('',#1050,1.54999999999971,0.785398163397589);
#27=CONICAL_SURFACE('',#1051,1.54999999999985,0.785398163397477);
#28=CONICAL_SURFACE('',#1052,9.95000000007486,0.785398162687536);
#29=CONICAL_SURFACE('',#1053,3.04999999999997,0.785398163397447);
#30=CONICAL_SURFACE('',#1056,7.94960619501208,0.785373395558996);
#31=B_SPLINE_CURVE_WITH_KNOTS('',3,(#1430,#1431,#1432,#1433,#1434,#1435,
#1436,#1437,#1438,#1439),.UNSPECIFIED.,.F.,.F.,(4,2,2,2,4),(-10.3728224928105,
-7.85716918495595,-5.18657854978441,-2.53083743118143,-0.000831211256296152),
 .UNSPECIFIED.);
#32=B_SPLINE_CURVE_WITH_KNOTS('',3,(#1442,#1443,#1444,#1445,#1446,#1447,
#1448,#1449,#1450,#1451),.UNSPECIFIED.,.F.,.F.,(4,2,2,2,4),(2.62872170861475E-5,
2.51563741778228,5.18623945129788,7.8419390758438,10.3719941534627),
 .UNSPECIFIED.);
#33=B_SPLINE_CURVE_WITH_KNOTS('',3,(#1513,#1514,#1515,#1516,#1517,#1518,
#1519,#1520,#1521,#1522,#1523,#1524,#1525,#1526,#1527,#1528),
 .UNSPECIFIED.,.F.,.F.,(4,2,2,2,2,2,2,4),(0.000410450039832656,0.352818154596568,
0.529155456731427,0.617324075560588,0.66200549708194,0.684346207842617,
0.695516563222955,0.706686918603293),.UNSPECIFIED.);
#34=B_SPLINE_CURVE_WITH_KNOTS('',3,(#1626,#1627,#1628,#1629,#1630,#1631,
#1632,#1633,#1634,#1635,#1636,#1637,#1638,#1639,#1640,#1641),
 .UNSPECIFIED.,.F.,.F.,(4,2,2,2,2,2,2,4),(0.000508970681282023,0.352218259736218,
0.528266615368896,0.616289084305828,0.660809809269265,0.683070171750984,
0.694200352991843,0.705330534232703),.UNSPECIFIED.);
#35=LINE('',#1346,#127);
#36=LINE('',#1353,#128);
#37=LINE('',#1355,#129);
#38=LINE('',#1357,#130);
#39=LINE('',#1358,#131);
#40=LINE('',#1361,#132);
#41=LINE('',#1363,#133);
#42=LINE('',#1365,#134);
#43=LINE('',#1367,#135);
#44=LINE('',#1368,#136);
#45=LINE('',#1372,#137);
#46=LINE('',#1374,#138);
#47=LINE('',#1376,#139);
#48=LINE('',#1377,#140);
#49=LINE('',#1378,#141);
#50=LINE('',#1381,#142);
#51=LINE('',#1386,#143);
#52=LINE('',#1392,#144);
#53=LINE('',#1395,#145);
#54=LINE('',#1397,#146);
#55=LINE('',#1401,#147);
#56=LINE('',#1407,#148);
#57=LINE('',#1411,#149);
#58=LINE('',#1415,#150);
#59=LINE('',#1418,#151);
#60=LINE('',#1422,#152);
#61=LINE('',#1424,#153);
#62=LINE('',#1426,#154);
#63=LINE('',#1427,#155);
#64=LINE('',#1441,#156);
#65=LINE('',#1455,#157);
#66=LINE('',#1457,#158);
#67=LINE('',#1459,#159);
#68=LINE('',#1460,#160);
#69=LINE('',#1466,#161);
#70=LINE('',#1469,#162);
#71=LINE('',#1473,#163);
#72=LINE('',#1477,#164);
#73=LINE('',#1484,#165);
#74=LINE('',#1490,#166);
#75=LINE('',#1493,#167);
#76=LINE('',#1494,#168);
#77=LINE('',#1497,#169);
#78=LINE('',#1498,#170);
#79=LINE('',#1502,#171);
#80=LINE('',#1504,#172);
#81=LINE('',#1505,#173);
#82=LINE('',#1512,#174);
#83=LINE('',#1530,#175);
#84=LINE('',#1535,#176);
#85=LINE('',#1536,#177);
#86=LINE('',#1538,#178);
#87=LINE('',#1539,#179);
#88=LINE('',#1540,#180);
#89=LINE('',#1542,#181);
#90=LINE('',#1545,#182);
#91=LINE('',#1548,#183);
#92=LINE('',#1549,#184);
#93=LINE('',#1552,#185);
#94=LINE('',#1553,#186);
#95=LINE('',#1557,#187);
#96=LINE('',#1558,#188);
#97=LINE('',#1561,#189);
#98=LINE('',#1562,#190);
#99=LINE('',#1566,#191);
#100=LINE('',#1572,#192);
#101=LINE('',#1575,#193);
#102=LINE('',#1577,#194);
#103=LINE('',#1581,#195);
#104=LINE('',#1585,#196);
#105=LINE('',#1589,#197);
#106=LINE('',#1593,#198);
#107=LINE('',#1596,#199);
#108=LINE('',#1601,#200);
#109=LINE('',#1605,#201);
#110=LINE('',#1606,#202);
#111=LINE('',#1610,#203);
#112=LINE('',#1612,#204);
#113=LINE('',#1614,#205);
#114=LINE('',#1616,#206);
#115=LINE('',#1618,#207);
#116=LINE('',#1619,#208);
#117=LINE('',#1642,#209);
#118=LINE('',#1644,#210);
#119=LINE('',#1646,#211);
#120=LINE('',#1647,#212);
#121=LINE('',#1649,#213);
#122=LINE('',#1650,#214);
#123=LINE('',#1652,#215);
#124=LINE('',#1654,#216);
#125=LINE('',#1656,#217);
#126=LINE('',#1659,#218);
#127=VECTOR('',#1071,2.99999999999997);
#128=VECTOR('',#1078,1.);
#129=VECTOR('',#1079,1.);
#130=VECTOR('',#1080,1.);
#131=VECTOR('',#1081,1.);
#132=VECTOR('',#1084,1.);
#133=VECTOR('',#1085,1.);
#134=VECTOR('',#1086,1.);
#135=VECTOR('',#1087,1.);
#136=VECTOR('',#1088,1.);
#137=VECTOR('',#1091,1.);
#138=VECTOR('',#1092,1.);
#139=VECTOR('',#1093,1.);
#140=VECTOR('',#1094,1.);
#141=VECTOR('',#1095,1.);
#142=VECTOR('',#1098,1.60000000000001);
#143=VECTOR('',#1105,6.5);
#144=VECTOR('',#1110,1.);
#145=VECTOR('',#1113,1.);
#146=VECTOR('',#1114,1.);
#147=VECTOR('',#1117,1.);
#148=VECTOR('',#1122,1.);
#149=VECTOR('',#1125,1.);
#150=VECTOR('',#1128,1.);
#151=VECTOR('',#1131,1.);
#152=VECTOR('',#1134,1.);
#153=VECTOR('',#1135,1.);
#154=VECTOR('',#1136,1.);
#155=VECTOR('',#1137,1.);
#156=VECTOR('',#1140,1.);
#157=VECTOR('',#1143,1.);
#158=VECTOR('',#1144,1.);
#159=VECTOR('',#1145,1.);
#160=VECTOR('',#1146,1.);
#161=VECTOR('',#1151,1.);
#162=VECTOR('',#1154,1.);
#163=VECTOR('',#1157,1.);
#164=VECTOR('',#1160,1.);
#165=VECTOR('',#1169,1.);
#166=VECTOR('',#1176,1.);
#167=VECTOR('',#1179,1.);
#168=VECTOR('',#1180,1.);
#169=VECTOR('',#1183,1.);
#170=VECTOR('',#1184,1.);
#171=VECTOR('',#1189,1.);
#172=VECTOR('',#1192,1.);
#173=VECTOR('',#1193,1.);
#174=VECTOR('',#1194,1.);
#175=VECTOR('',#1197,1.);
#176=VECTOR('',#1204,1.);
#177=VECTOR('',#1205,1.);
#178=VECTOR('',#1208,1.);
#179=VECTOR('',#1209,1.);
#180=VECTOR('',#1210,1.);
#181=VECTOR('',#1213,1.);
#182=VECTOR('',#1218,1.);
#183=VECTOR('',#1223,1.);
#184=VECTOR('',#1224,1.);
#185=VECTOR('',#1229,1.);
#186=VECTOR('',#1230,1.);
#187=VECTOR('',#1235,1.);
#188=VECTOR('',#1236,1.);
#189=VECTOR('',#1239,1.);
#190=VECTOR('',#1240,1.);
#191=VECTOR('',#1243,1.);
#192=VECTOR('',#1248,1.);
#193=VECTOR('',#1251,1.);
#194=VECTOR('',#1252,1.);
#195=VECTOR('',#1255,1.);
#196=VECTOR('',#1258,1.);
#197=VECTOR('',#1261,1.);
#198=VECTOR('',#1264,1.);
#199=VECTOR('',#1269,1.);
#200=VECTOR('',#1276,1.);
#201=VECTOR('',#1281,1.);
#202=VECTOR('',#1282,1.);
#203=VECTOR('',#1289,1.);
#204=VECTOR('',#1292,1.);
#205=VECTOR('',#1295,1.);
#206=VECTOR('',#1298,1.);
#207=VECTOR('',#1301,1.);
#208=VECTOR('',#1302,1.);
#209=VECTOR('',#1303,1.);
#210=VECTOR('',#1306,1.);
#211=VECTOR('',#1309,1.);
#212=VECTOR('',#1310,1.);
#213=VECTOR('',#1313,1.);
#214=VECTOR('',#1314,1.);
#215=VECTOR('',#1317,1.);
#216=VECTOR('',#1320,1.);
#217=VECTOR('',#1323,1.);
#218=VECTOR('',#1328,1.);
#219=CYLINDRICAL_SURFACE('',#970,2.);
#220=CYLINDRICAL_SURFACE('',#977,1.60000000000001);
#221=CYLINDRICAL_SURFACE('',#979,6.5);
#222=CYLINDRICAL_SURFACE('',#991,7.99999999999995);
#223=CYLINDRICAL_SURFACE('',#993,4.99999999999986);
#224=CYLINDRICAL_SURFACE('',#996,4.99999999999993);
#225=CYLINDRICAL_SURFACE('',#999,1.99999999999994);
#226=CYLINDRICAL_SURFACE('',#1002,2.00000000000021);
#227=CYLINDRICAL_SURFACE('',#1035,3.);
#228=CYLINDRICAL_SURFACE('',#1037,10.0000000000003);
#229=CYLINDRICAL_SURFACE('',#1040,7.99999999999995);
#230=FACE_BOUND('',#293,.T.);
#231=FACE_BOUND('',#296,.T.);
#232=FACE_BOUND('',#303,.T.);
#233=FACE_BOUND('',#330,.T.);
#234=FACE_OUTER_BOUND('',#292,.T.);
#235=FACE_OUTER_BOUND('',#294,.T.);
#236=FACE_OUTER_BOUND('',#295,.T.);
#237=FACE_OUTER_BOUND('',#297,.T.);
#238=FACE_OUTER_BOUND('',#298,.T.);
#239=FACE_OUTER_BOUND('',#299,.T.);
#240=FACE_OUTER_BOUND('',#300,.T.);
#241=FACE_OUTER_BOUND('',#301,.T.);
#242=FACE_OUTER_BOUND('',#302,.T.);
#243=FACE_OUTER_BOUND('',#304,.T.);
#244=FACE_OUTER_BOUND('',#305,.T.);
#245=FACE_OUTER_BOUND('',#306,.T.);
#246=FACE_OUTER_BOUND('',#307,.T.);
#247=FACE_OUTER_BOUND('',#308,.T.);
#248=FACE_OUTER_BOUND('',#309,.T.);
#249=FACE_OUTER_BOUND('',#310,.T.);
#250=FACE_OUTER_BOUND('',#311,.T.);
#251=FACE_OUTER_BOUND('',#312,.T.);
#252=FACE_OUTER_BOUND('',#313,.T.);
#253=FACE_OUTER_BOUND('',#314,.T.);
#254=FACE_OUTER_BOUND('',#315,.T.);
#255=FACE_OUTER_BOUND('',#316,.T.);
#256=FACE_OUTER_BOUND('',#317,.T.);
#257=FACE_OUTER_BOUND('',#318,.T.);
#258=FACE_OUTER_BOUND('',#319,.T.);
#259=FACE_OUTER_BOUND('',#320,.T.);
#260=FACE_OUTER_BOUND('',#321,.T.);
#261=FACE_OUTER_BOUND('',#322,.T.);
#262=FACE_OUTER_BOUND('',#323,.T.);
#263=FACE_OUTER_BOUND('',#324,.T.);
#264=FACE_OUTER_BOUND('',#325,.T.);
#265=FACE_OUTER_BOUND('',#326,.T.);
#266=FACE_OUTER_BOUND('',#327,.T.);
#267=FACE_OUTER_BOUND('',#328,.T.);
#268=FACE_OUTER_BOUND('',#329,.T.);
#269=FACE_OUTER_BOUND('',#331,.T.);
#270=FACE_OUTER_BOUND('',#332,.T.);
#271=FACE_OUTER_BOUND('',#333,.T.);
#272=FACE_OUTER_BOUND('',#334,.T.);
#273=FACE_OUTER_BOUND('',#335,.T.);
#274=FACE_OUTER_BOUND('',#336,.T.);
#275=FACE_OUTER_BOUND('',#337,.T.);
#276=FACE_OUTER_BOUND('',#338,.T.);
#277=FACE_OUTER_BOUND('',#339,.T.);
#278=FACE_OUTER_BOUND('',#340,.T.);
#279=FACE_OUTER_BOUND('',#341,.T.);
#280=FACE_OUTER_BOUND('',#342,.T.);
#281=FACE_OUTER_BOUND('',#343,.T.);
#282=FACE_OUTER_BOUND('',#344,.T.);
#283=FACE_OUTER_BOUND('',#345,.T.);
#284=FACE_OUTER_BOUND('',#346,.T.);
#285=FACE_OUTER_BOUND('',#347,.T.);
#286=FACE_OUTER_BOUND('',#348,.T.);
#287=FACE_OUTER_BOUND('',#349,.T.);
#288=FACE_OUTER_BOUND('',#350,.T.);
#289=FACE_OUTER_BOUND('',#351,.T.);
#290=FACE_OUTER_BOUND('',#352,.T.);
#291=FACE_OUTER_BOUND('',#353,.T.);
#292=EDGE_LOOP('',(#600));
#293=EDGE_LOOP('',(#601));
#294=EDGE_LOOP('',(#602,#603,#604,#605));
#295=EDGE_LOOP('',(#606));
#296=EDGE_LOOP('',(#607));
#297=EDGE_LOOP('',(#608,#609,#610,#611));
#298=EDGE_LOOP('',(#612,#613,#614,#615,#616,#617));
#299=EDGE_LOOP('',(#618,#619,#620,#621,#622,#623));
#300=EDGE_LOOP('',(#624,#625,#626,#627));
#301=EDGE_LOOP('',(#628,#629,#630,#631));
#302=EDGE_LOOP('',(#632,#633,#634,#635,#636,#637,#638,#639,#640,#641,#642,
#643,#644,#645,#646,#647,#648));
#303=EDGE_LOOP('',(#649));
#304=EDGE_LOOP('',(#650,#651,#652,#653));
#305=EDGE_LOOP('',(#654,#655,#656,#657));
#306=EDGE_LOOP('',(#658,#659,#660,#661));
#307=EDGE_LOOP('',(#662,#663,#664,#665));
#308=EDGE_LOOP('',(#666,#667,#668,#669));
#309=EDGE_LOOP('',(#670,#671,#672,#673));
#310=EDGE_LOOP('',(#674,#675,#676,#677));
#311=EDGE_LOOP('',(#678,#679,#680,#681));
#312=EDGE_LOOP('',(#682,#683,#684,#685));
#313=EDGE_LOOP('',(#686,#687,#688,#689));
#314=EDGE_LOOP('',(#690,#691,#692,#693));
#315=EDGE_LOOP('',(#694,#695,#696,#697));
#316=EDGE_LOOP('',(#698,#699,#700,#701));
#317=EDGE_LOOP('',(#702,#703,#704,#705));
#318=EDGE_LOOP('',(#706,#707,#708,#709));
#319=EDGE_LOOP('',(#710,#711,#712,#713));
#320=EDGE_LOOP('',(#714,#715,#716,#717));
#321=EDGE_LOOP('',(#718,#719,#720,#721));
#322=EDGE_LOOP('',(#722,#723,#724,#725));
#323=EDGE_LOOP('',(#726,#727,#728,#729));
#324=EDGE_LOOP('',(#730,#731,#732,#733));
#325=EDGE_LOOP('',(#734,#735,#736,#737));
#326=EDGE_LOOP('',(#738,#739,#740,#741));
#327=EDGE_LOOP('',(#742,#743,#744,#745,#746,#747));
#328=EDGE_LOOP('',(#748,#749,#750,#751,#752,#753));
#329=EDGE_LOOP('',(#754,#755,#756,#757,#758,#759,#760,#761,#762,#763,#764,
#765,#766,#767,#768,#769,#770));
#330=EDGE_LOOP('',(#771));
#331=EDGE_LOOP('',(#772,#773,#774,#775));
#332=EDGE_LOOP('',(#776,#777,#778,#779));
#333=EDGE_LOOP('',(#780,#781,#782,#783));
#334=EDGE_LOOP('',(#784,#785,#786,#787));
#335=EDGE_LOOP('',(#788,#789,#790,#791));
#336=EDGE_LOOP('',(#792,#793,#794,#795));
#337=EDGE_LOOP('',(#796,#797,#798,#799));
#338=EDGE_LOOP('',(#800,#801,#802,#803));
#339=EDGE_LOOP('',(#804,#805,#806,#807));
#340=EDGE_LOOP('',(#808,#809,#810,#811));
#341=EDGE_LOOP('',(#812,#813,#814,#815));
#342=EDGE_LOOP('',(#816,#817,#818,#819));
#343=EDGE_LOOP('',(#820,#821,#822,#823));
#344=EDGE_LOOP('',(#824,#825,#826,#827));
#345=EDGE_LOOP('',(#828,#829,#830,#831));
#346=EDGE_LOOP('',(#832,#833,#834,#835));
#347=EDGE_LOOP('',(#836,#837,#838,#839));
#348=EDGE_LOOP('',(#840,#841,#842,#843));
#349=EDGE_LOOP('',(#844,#845,#846,#847));
#350=EDGE_LOOP('',(#848,#849,#850,#851));
#351=EDGE_LOOP('',(#852,#853,#854,#855));
#352=EDGE_LOOP('',(#856,#857,#858,#859));
#353=EDGE_LOOP('',(#860,#861,#862,#863));
#354=CIRCLE('',#968,2.);
#355=CIRCLE('',#969,1.60000000000002);
#356=CIRCLE('',#971,2.);
#357=CIRCLE('',#973,6.5);
#358=CIRCLE('',#978,1.60000000000002);
#359=CIRCLE('',#980,6.5);
#360=CIRCLE('',#982,1.50000000000004);
#361=CIRCLE('',#983,3.5);
#362=CIRCLE('',#984,9.50000000070983);
#363=CIRCLE('',#985,7.49999999999908);
#364=CIRCLE('',#986,5.5);
#365=CIRCLE('',#987,4.49999999999977);
#366=CIRCLE('',#988,1.49999999999995);
#367=CIRCLE('',#989,7.50069343746863);
#368=CIRCLE('',#994,5.00000000000003);
#369=CIRCLE('',#995,5.00000000000004);
#370=CIRCLE('',#997,4.99999999999994);
#371=CIRCLE('',#998,4.99999999999999);
#372=CIRCLE('',#1000,1.99999999999998);
#373=CIRCLE('',#1001,1.99999999999998);
#374=CIRCLE('',#1003,2.00000000000016);
#375=CIRCLE('',#1004,2.00000000000002);
#376=CIRCLE('',#1008,9.99999999999952);
#377=CIRCLE('',#1012,3.);
#378=CIRCLE('',#1017,7.99999999999942);
#379=CIRCLE('',#1026,5.50000000032198);
#380=CIRCLE('',#1027,7.4996284855179);
#381=CIRCLE('',#1028,9.50000000070913);
#382=CIRCLE('',#1029,3.49999999999998);
#383=CIRCLE('',#1030,1.50000000000016);
#384=CIRCLE('',#1031,7.50069343746857);
#385=CIRCLE('',#1032,1.49999999999999);
#386=CIRCLE('',#1033,4.5000000059963);
#387=CIRCLE('',#1036,3.00000000000001);
#388=CIRCLE('',#1038,9.99999999999957);
#389=CIRCLE('',#1041,7.99999999999995);
#390=VERTEX_POINT('',#1339);
#391=VERTEX_POINT('',#1341);
#392=VERTEX_POINT('',#1344);
#393=VERTEX_POINT('',#1348);
#394=VERTEX_POINT('',#1351);
#395=VERTEX_POINT('',#1352);
#396=VERTEX_POINT('',#1354);
#397=VERTEX_POINT('',#1356);
#398=VERTEX_POINT('',#1360);
#399=VERTEX_POINT('',#1362);
#400=VERTEX_POINT('',#1364);
#401=VERTEX_POINT('',#1366);
#402=VERTEX_POINT('',#1370);
#403=VERTEX_POINT('',#1371);
#404=VERTEX_POINT('',#1373);
#405=VERTEX_POINT('',#1375);
#406=VERTEX_POINT('',#1380);
#407=VERTEX_POINT('',#1384);
#408=VERTEX_POINT('',#1388);
#409=VERTEX_POINT('',#1389);
#410=VERTEX_POINT('',#1391);
#411=VERTEX_POINT('',#1393);
#412=VERTEX_POINT('',#1396);
#413=VERTEX_POINT('',#1398);
#414=VERTEX_POINT('',#1400);
#415=VERTEX_POINT('',#1402);
#416=VERTEX_POINT('',#1404);
#417=VERTEX_POINT('',#1406);
#418=VERTEX_POINT('',#1408);
#419=VERTEX_POINT('',#1410);
#420=VERTEX_POINT('',#1412);
#421=VERTEX_POINT('',#1414);
#422=VERTEX_POINT('',#1416);
#423=VERTEX_POINT('',#1420);
#424=VERTEX_POINT('',#1421);
#425=VERTEX_POINT('',#1423);
#426=VERTEX_POINT('',#1425);
#427=VERTEX_POINT('',#1429);
#428=VERTEX_POINT('',#1440);
#429=VERTEX_POINT('',#1453);
#430=VERTEX_POINT('',#1454);
#431=VERTEX_POINT('',#1456);
#432=VERTEX_POINT('',#1458);
#433=VERTEX_POINT('',#1462);
#434=VERTEX_POINT('',#1463);
#435=VERTEX_POINT('',#1465);
#436=VERTEX_POINT('',#1467);
#437=VERTEX_POINT('',#1471);
#438=VERTEX_POINT('',#1472);
#439=VERTEX_POINT('',#1474);
#440=VERTEX_POINT('',#1476);
#441=VERTEX_POINT('',#1480);
#442=VERTEX_POINT('',#1482);
#443=VERTEX_POINT('',#1486);
#444=VERTEX_POINT('',#1488);
#445=VERTEX_POINT('',#1492);
#446=VERTEX_POINT('',#1496);
#447=VERTEX_POINT('',#1500);
#448=VERTEX_POINT('',#1534);
#449=VERTEX_POINT('',#1556);
#450=VERTEX_POINT('',#1560);
#451=VERTEX_POINT('',#1564);
#452=VERTEX_POINT('',#1565);
#453=VERTEX_POINT('',#1567);
#454=VERTEX_POINT('',#1569);
#455=VERTEX_POINT('',#1571);
#456=VERTEX_POINT('',#1573);
#457=VERTEX_POINT('',#1576);
#458=VERTEX_POINT('',#1578);
#459=VERTEX_POINT('',#1580);
#460=VERTEX_POINT('',#1582);
#461=VERTEX_POINT('',#1584);
#462=VERTEX_POINT('',#1586);
#463=VERTEX_POINT('',#1588);
#464=VERTEX_POINT('',#1590);
#465=VERTEX_POINT('',#1592);
#466=VERTEX_POINT('',#1600);
#467=VERTEX_POINT('',#1604);
#468=EDGE_CURVE('',#390,#390,#354,.T.);
#469=EDGE_CURVE('',#391,#391,#355,.T.);
#470=EDGE_CURVE('',#392,#392,#356,.F.);
#471=EDGE_CURVE('',#392,#390,#35,.T.);
#472=EDGE_CURVE('',#393,#393,#357,.T.);
#473=EDGE_CURVE('',#394,#395,#36,.T.);
#474=EDGE_CURVE('',#395,#396,#37,.T.);
#475=EDGE_CURVE('',#397,#396,#38,.T.);
#476=EDGE_CURVE('',#394,#397,#39,.T.);
#477=EDGE_CURVE('',#398,#394,#40,.T.);
#478=EDGE_CURVE('',#399,#397,#41,.T.);
#479=EDGE_CURVE('',#399,#400,#42,.T.);
#480=EDGE_CURVE('',#401,#400,#43,.T.);
#481=EDGE_CURVE('',#401,#398,#44,.T.);
#482=EDGE_CURVE('',#402,#403,#45,.T.);
#483=EDGE_CURVE('',#402,#404,#46,.T.);
#484=EDGE_CURVE('',#405,#404,#47,.T.);
#485=EDGE_CURVE('',#396,#405,#48,.T.);
#486=EDGE_CURVE('',#395,#403,#49,.T.);
#487=EDGE_CURVE('',#391,#406,#50,.T.);
#488=EDGE_CURVE('',#406,#406,#358,.T.);
#489=EDGE_CURVE('',#407,#407,#359,.T.);
#490=EDGE_CURVE('',#407,#393,#51,.T.);
#491=EDGE_CURVE('',#408,#409,#360,.T.);
#492=EDGE_CURVE('',#409,#410,#52,.T.);
#493=EDGE_CURVE('',#411,#410,#361,.T.);
#494=EDGE_CURVE('',#404,#411,#53,.T.);
#495=EDGE_CURVE('',#402,#412,#54,.T.);
#496=EDGE_CURVE('',#412,#413,#362,.T.);
#497=EDGE_CURVE('',#413,#414,#55,.T.);
#498=EDGE_CURVE('',#414,#415,#363,.T.);
#499=EDGE_CURVE('',#416,#415,#364,.T.);
#500=EDGE_CURVE('',#416,#417,#56,.T.);
#501=EDGE_CURVE('',#417,#418,#365,.T.);
#502=EDGE_CURVE('',#418,#419,#57,.T.);
#503=EDGE_CURVE('',#419,#420,#366,.T.);
#504=EDGE_CURVE('',#420,#421,#58,.T.);
#505=EDGE_CURVE('',#421,#422,#367,.T.);
#506=EDGE_CURVE('',#422,#408,#59,.T.);
#507=EDGE_CURVE('',#423,#424,#60,.T.);
#508=EDGE_CURVE('',#425,#424,#61,.T.);
#509=EDGE_CURVE('',#426,#425,#62,.T.);
#510=EDGE_CURVE('',#426,#423,#63,.T.);
#511=EDGE_CURVE('',#424,#427,#31,.T.);
#512=EDGE_CURVE('',#428,#427,#64,.T.);
#513=EDGE_CURVE('',#425,#428,#32,.T.);
#514=EDGE_CURVE('',#429,#430,#65,.T.);
#515=EDGE_CURVE('',#431,#430,#66,.T.);
#516=EDGE_CURVE('',#432,#431,#67,.T.);
#517=EDGE_CURVE('',#432,#429,#68,.T.);
#518=EDGE_CURVE('',#433,#434,#368,.T.);
#519=EDGE_CURVE('',#434,#435,#69,.T.);
#520=EDGE_CURVE('',#436,#435,#369,.T.);
#521=EDGE_CURVE('',#433,#436,#70,.T.);
#522=EDGE_CURVE('',#437,#438,#71,.T.);
#523=EDGE_CURVE('',#437,#439,#370,.T.);
#524=EDGE_CURVE('',#439,#440,#72,.T.);
#525=EDGE_CURVE('',#438,#440,#371,.T.);
#526=EDGE_CURVE('',#441,#423,#372,.T.);
#527=EDGE_CURVE('',#442,#426,#373,.T.);
#528=EDGE_CURVE('',#442,#441,#73,.T.);
#529=EDGE_CURVE('',#443,#429,#374,.T.);
#530=EDGE_CURVE('',#444,#432,#375,.T.);
#531=EDGE_CURVE('',#444,#443,#74,.T.);
#532=EDGE_CURVE('',#445,#411,#75,.T.);
#533=EDGE_CURVE('',#405,#445,#76,.T.);
#534=EDGE_CURVE('',#403,#446,#77,.T.);
#535=EDGE_CURVE('',#446,#412,#78,.T.);
#536=EDGE_CURVE('',#446,#447,#376,.T.);
#537=EDGE_CURVE('',#413,#447,#79,.T.);
#538=EDGE_CURVE('',#432,#409,#80,.T.);
#539=EDGE_CURVE('',#410,#431,#81,.T.);
#540=EDGE_CURVE('',#425,#421,#82,.T.);
#541=EDGE_CURVE('',#428,#422,#33,.T.);
#542=EDGE_CURVE('',#426,#420,#83,.T.);
#543=EDGE_CURVE('',#445,#431,#377,.T.);
#544=EDGE_CURVE('',#447,#448,#84,.T.);
#545=EDGE_CURVE('',#414,#448,#85,.T.);
#546=EDGE_CURVE('',#437,#416,#86,.T.);
#547=EDGE_CURVE('',#437,#436,#87,.T.);
#548=EDGE_CURVE('',#417,#436,#88,.T.);
#549=EDGE_CURVE('',#435,#418,#89,.T.);
#550=EDGE_CURVE('',#448,#439,#378,.T.);
#551=EDGE_CURVE('',#415,#439,#90,.T.);
#552=EDGE_CURVE('',#435,#442,#91,.T.);
#553=EDGE_CURVE('',#419,#442,#92,.T.);
#554=EDGE_CURVE('',#428,#444,#93,.T.);
#555=EDGE_CURVE('',#408,#444,#94,.T.);
#556=EDGE_CURVE('',#445,#449,#95,.T.);
#557=EDGE_CURVE('',#399,#449,#96,.T.);
#558=EDGE_CURVE('',#398,#450,#97,.T.);
#559=EDGE_CURVE('',#446,#450,#98,.T.);
#560=EDGE_CURVE('',#451,#452,#99,.T.);
#561=EDGE_CURVE('',#452,#453,#379,.T.);
#562=EDGE_CURVE('',#453,#454,#380,.T.);
#563=EDGE_CURVE('',#454,#455,#100,.T.);
#564=EDGE_CURVE('',#455,#456,#381,.T.);
#565=EDGE_CURVE('',#401,#456,#101,.T.);
#566=EDGE_CURVE('',#400,#457,#102,.T.);
#567=EDGE_CURVE('',#458,#457,#382,.T.);
#568=EDGE_CURVE('',#459,#458,#103,.T.);
#569=EDGE_CURVE('',#460,#459,#383,.T.);
#570=EDGE_CURVE('',#460,#461,#104,.T.);
#571=EDGE_CURVE('',#462,#461,#384,.T.);
#572=EDGE_CURVE('',#463,#462,#105,.T.);
#573=EDGE_CURVE('',#464,#463,#385,.T.);
#574=EDGE_CURVE('',#464,#465,#106,.T.);
#575=EDGE_CURVE('',#451,#465,#386,.T.);
#576=EDGE_CURVE('',#433,#438,#107,.T.);
#577=EDGE_CURVE('',#430,#449,#387,.T.);
#578=EDGE_CURVE('',#447,#466,#108,.T.);
#579=EDGE_CURVE('',#466,#450,#388,.T.);
#580=EDGE_CURVE('',#467,#448,#109,.T.);
#581=EDGE_CURVE('',#467,#466,#110,.T.);
#582=EDGE_CURVE('',#440,#467,#389,.T.);
#583=EDGE_CURVE('',#441,#434,#111,.T.);
#584=EDGE_CURVE('',#443,#427,#112,.T.);
#585=EDGE_CURVE('',#449,#457,#113,.T.);
#586=EDGE_CURVE('',#450,#456,#114,.T.);
#587=EDGE_CURVE('',#458,#430,#115,.T.);
#588=EDGE_CURVE('',#459,#429,#116,.T.);
#589=EDGE_CURVE('',#427,#461,#34,.T.);
#590=EDGE_CURVE('',#462,#424,#117,.T.);
#591=EDGE_CURVE('',#423,#463,#118,.T.);
#592=EDGE_CURVE('',#465,#434,#119,.T.);
#593=EDGE_CURVE('',#451,#433,#120,.T.);
#594=EDGE_CURVE('',#438,#452,#121,.T.);
#595=EDGE_CURVE('',#453,#440,#122,.T.);
#596=EDGE_CURVE('',#464,#441,#123,.T.);
#597=EDGE_CURVE('',#460,#443,#124,.T.);
#598=EDGE_CURVE('',#466,#455,#125,.T.);
#599=EDGE_CURVE('',#454,#467,#126,.T.);
#600=ORIENTED_EDGE('',*,*,#468,.T.);
#601=ORIENTED_EDGE('',*,*,#469,.F.);
#602=ORIENTED_EDGE('',*,*,#470,.F.);
#603=ORIENTED_EDGE('',*,*,#471,.T.);
#604=ORIENTED_EDGE('',*,*,#468,.F.);
#605=ORIENTED_EDGE('',*,*,#471,.F.);
#606=ORIENTED_EDGE('',*,*,#472,.T.);
#607=ORIENTED_EDGE('',*,*,#470,.T.);
#608=ORIENTED_EDGE('',*,*,#473,.T.);
#609=ORIENTED_EDGE('',*,*,#474,.T.);
#610=ORIENTED_EDGE('',*,*,#475,.F.);
#611=ORIENTED_EDGE('',*,*,#476,.F.);
#612=ORIENTED_EDGE('',*,*,#477,.T.);
#613=ORIENTED_EDGE('',*,*,#476,.T.);
#614=ORIENTED_EDGE('',*,*,#478,.F.);
#615=ORIENTED_EDGE('',*,*,#479,.T.);
#616=ORIENTED_EDGE('',*,*,#480,.F.);
#617=ORIENTED_EDGE('',*,*,#481,.T.);
#618=ORIENTED_EDGE('',*,*,#482,.F.);
#619=ORIENTED_EDGE('',*,*,#483,.T.);
#620=ORIENTED_EDGE('',*,*,#484,.F.);
#621=ORIENTED_EDGE('',*,*,#485,.F.);
#622=ORIENTED_EDGE('',*,*,#474,.F.);
#623=ORIENTED_EDGE('',*,*,#486,.T.);
#624=ORIENTED_EDGE('',*,*,#469,.T.);
#625=ORIENTED_EDGE('',*,*,#487,.T.);
#626=ORIENTED_EDGE('',*,*,#488,.F.);
#627=ORIENTED_EDGE('',*,*,#487,.F.);
#628=ORIENTED_EDGE('',*,*,#489,.T.);
#629=ORIENTED_EDGE('',*,*,#490,.T.);
#630=ORIENTED_EDGE('',*,*,#472,.F.);
#631=ORIENTED_EDGE('',*,*,#490,.F.);
#632=ORIENTED_EDGE('',*,*,#491,.T.);
#633=ORIENTED_EDGE('',*,*,#492,.T.);
#634=ORIENTED_EDGE('',*,*,#493,.F.);
#635=ORIENTED_EDGE('',*,*,#494,.F.);
#636=ORIENTED_EDGE('',*,*,#483,.F.);
#637=ORIENTED_EDGE('',*,*,#495,.T.);
#638=ORIENTED_EDGE('',*,*,#496,.T.);
#639=ORIENTED_EDGE('',*,*,#497,.T.);
#640=ORIENTED_EDGE('',*,*,#498,.T.);
#641=ORIENTED_EDGE('',*,*,#499,.F.);
#642=ORIENTED_EDGE('',*,*,#500,.T.);
#643=ORIENTED_EDGE('',*,*,#501,.T.);
#644=ORIENTED_EDGE('',*,*,#502,.T.);
#645=ORIENTED_EDGE('',*,*,#503,.T.);
#646=ORIENTED_EDGE('',*,*,#504,.T.);
#647=ORIENTED_EDGE('',*,*,#505,.T.);
#648=ORIENTED_EDGE('',*,*,#506,.T.);
#649=ORIENTED_EDGE('',*,*,#488,.T.);
#650=ORIENTED_EDGE('',*,*,#507,.T.);
#651=ORIENTED_EDGE('',*,*,#508,.F.);
#652=ORIENTED_EDGE('',*,*,#509,.F.);
#653=ORIENTED_EDGE('',*,*,#510,.T.);
#654=ORIENTED_EDGE('',*,*,#511,.T.);
#655=ORIENTED_EDGE('',*,*,#512,.F.);
#656=ORIENTED_EDGE('',*,*,#513,.F.);
#657=ORIENTED_EDGE('',*,*,#508,.T.);
#658=ORIENTED_EDGE('',*,*,#514,.T.);
#659=ORIENTED_EDGE('',*,*,#515,.F.);
#660=ORIENTED_EDGE('',*,*,#516,.F.);
#661=ORIENTED_EDGE('',*,*,#517,.T.);
#662=ORIENTED_EDGE('',*,*,#518,.T.);
#663=ORIENTED_EDGE('',*,*,#519,.T.);
#664=ORIENTED_EDGE('',*,*,#520,.F.);
#665=ORIENTED_EDGE('',*,*,#521,.F.);
#666=ORIENTED_EDGE('',*,*,#522,.F.);
#667=ORIENTED_EDGE('',*,*,#523,.T.);
#668=ORIENTED_EDGE('',*,*,#524,.T.);
#669=ORIENTED_EDGE('',*,*,#525,.F.);
#670=ORIENTED_EDGE('',*,*,#526,.T.);
#671=ORIENTED_EDGE('',*,*,#510,.F.);
#672=ORIENTED_EDGE('',*,*,#527,.F.);
#673=ORIENTED_EDGE('',*,*,#528,.T.);
#674=ORIENTED_EDGE('',*,*,#529,.T.);
#675=ORIENTED_EDGE('',*,*,#517,.F.);
#676=ORIENTED_EDGE('',*,*,#530,.F.);
#677=ORIENTED_EDGE('',*,*,#531,.T.);
#678=ORIENTED_EDGE('',*,*,#484,.T.);
#679=ORIENTED_EDGE('',*,*,#494,.T.);
#680=ORIENTED_EDGE('',*,*,#532,.F.);
#681=ORIENTED_EDGE('',*,*,#533,.F.);
#682=ORIENTED_EDGE('',*,*,#534,.T.);
#683=ORIENTED_EDGE('',*,*,#535,.T.);
#684=ORIENTED_EDGE('',*,*,#495,.F.);
#685=ORIENTED_EDGE('',*,*,#482,.T.);
#686=ORIENTED_EDGE('',*,*,#535,.F.);
#687=ORIENTED_EDGE('',*,*,#536,.T.);
#688=ORIENTED_EDGE('',*,*,#537,.F.);
#689=ORIENTED_EDGE('',*,*,#496,.F.);
#690=ORIENTED_EDGE('',*,*,#538,.F.);
#691=ORIENTED_EDGE('',*,*,#516,.T.);
#692=ORIENTED_EDGE('',*,*,#539,.F.);
#693=ORIENTED_EDGE('',*,*,#492,.F.);
#694=ORIENTED_EDGE('',*,*,#505,.F.);
#695=ORIENTED_EDGE('',*,*,#540,.F.);
#696=ORIENTED_EDGE('',*,*,#513,.T.);
#697=ORIENTED_EDGE('',*,*,#541,.T.);
#698=ORIENTED_EDGE('',*,*,#542,.F.);
#699=ORIENTED_EDGE('',*,*,#509,.T.);
#700=ORIENTED_EDGE('',*,*,#540,.T.);
#701=ORIENTED_EDGE('',*,*,#504,.F.);
#702=ORIENTED_EDGE('',*,*,#493,.T.);
#703=ORIENTED_EDGE('',*,*,#539,.T.);
#704=ORIENTED_EDGE('',*,*,#543,.F.);
#705=ORIENTED_EDGE('',*,*,#532,.T.);
#706=ORIENTED_EDGE('',*,*,#537,.T.);
#707=ORIENTED_EDGE('',*,*,#544,.T.);
#708=ORIENTED_EDGE('',*,*,#545,.F.);
#709=ORIENTED_EDGE('',*,*,#497,.F.);
#710=ORIENTED_EDGE('',*,*,#546,.F.);
#711=ORIENTED_EDGE('',*,*,#547,.T.);
#712=ORIENTED_EDGE('',*,*,#548,.F.);
#713=ORIENTED_EDGE('',*,*,#500,.F.);
#714=ORIENTED_EDGE('',*,*,#548,.T.);
#715=ORIENTED_EDGE('',*,*,#520,.T.);
#716=ORIENTED_EDGE('',*,*,#549,.T.);
#717=ORIENTED_EDGE('',*,*,#501,.F.);
#718=ORIENTED_EDGE('',*,*,#545,.T.);
#719=ORIENTED_EDGE('',*,*,#550,.T.);
#720=ORIENTED_EDGE('',*,*,#551,.F.);
#721=ORIENTED_EDGE('',*,*,#498,.F.);
#722=ORIENTED_EDGE('',*,*,#499,.T.);
#723=ORIENTED_EDGE('',*,*,#551,.T.);
#724=ORIENTED_EDGE('',*,*,#523,.F.);
#725=ORIENTED_EDGE('',*,*,#546,.T.);
#726=ORIENTED_EDGE('',*,*,#549,.F.);
#727=ORIENTED_EDGE('',*,*,#552,.T.);
#728=ORIENTED_EDGE('',*,*,#553,.F.);
#729=ORIENTED_EDGE('',*,*,#502,.F.);
#730=ORIENTED_EDGE('',*,*,#553,.T.);
#731=ORIENTED_EDGE('',*,*,#527,.T.);
#732=ORIENTED_EDGE('',*,*,#542,.T.);
#733=ORIENTED_EDGE('',*,*,#503,.F.);
#734=ORIENTED_EDGE('',*,*,#541,.F.);
#735=ORIENTED_EDGE('',*,*,#554,.T.);
#736=ORIENTED_EDGE('',*,*,#555,.F.);
#737=ORIENTED_EDGE('',*,*,#506,.F.);
#738=ORIENTED_EDGE('',*,*,#555,.T.);
#739=ORIENTED_EDGE('',*,*,#530,.T.);
#740=ORIENTED_EDGE('',*,*,#538,.T.);
#741=ORIENTED_EDGE('',*,*,#491,.F.);
#742=ORIENTED_EDGE('',*,*,#478,.T.);
#743=ORIENTED_EDGE('',*,*,#475,.T.);
#744=ORIENTED_EDGE('',*,*,#485,.T.);
#745=ORIENTED_EDGE('',*,*,#533,.T.);
#746=ORIENTED_EDGE('',*,*,#556,.T.);
#747=ORIENTED_EDGE('',*,*,#557,.F.);
#748=ORIENTED_EDGE('',*,*,#558,.T.);
#749=ORIENTED_EDGE('',*,*,#559,.F.);
#750=ORIENTED_EDGE('',*,*,#534,.F.);
#751=ORIENTED_EDGE('',*,*,#486,.F.);
#752=ORIENTED_EDGE('',*,*,#473,.F.);
#753=ORIENTED_EDGE('',*,*,#477,.F.);
#754=ORIENTED_EDGE('',*,*,#560,.T.);
#755=ORIENTED_EDGE('',*,*,#561,.T.);
#756=ORIENTED_EDGE('',*,*,#562,.T.);
#757=ORIENTED_EDGE('',*,*,#563,.T.);
#758=ORIENTED_EDGE('',*,*,#564,.T.);
#759=ORIENTED_EDGE('',*,*,#565,.F.);
#760=ORIENTED_EDGE('',*,*,#480,.T.);
#761=ORIENTED_EDGE('',*,*,#566,.T.);
#762=ORIENTED_EDGE('',*,*,#567,.F.);
#763=ORIENTED_EDGE('',*,*,#568,.F.);
#764=ORIENTED_EDGE('',*,*,#569,.F.);
#765=ORIENTED_EDGE('',*,*,#570,.T.);
#766=ORIENTED_EDGE('',*,*,#571,.F.);
#767=ORIENTED_EDGE('',*,*,#572,.F.);
#768=ORIENTED_EDGE('',*,*,#573,.F.);
#769=ORIENTED_EDGE('',*,*,#574,.T.);
#770=ORIENTED_EDGE('',*,*,#575,.F.);
#771=ORIENTED_EDGE('',*,*,#489,.F.);
#772=ORIENTED_EDGE('',*,*,#521,.T.);
#773=ORIENTED_EDGE('',*,*,#547,.F.);
#774=ORIENTED_EDGE('',*,*,#522,.T.);
#775=ORIENTED_EDGE('',*,*,#576,.F.);
#776=ORIENTED_EDGE('',*,*,#577,.T.);
#777=ORIENTED_EDGE('',*,*,#556,.F.);
#778=ORIENTED_EDGE('',*,*,#543,.T.);
#779=ORIENTED_EDGE('',*,*,#515,.T.);
#780=ORIENTED_EDGE('',*,*,#578,.F.);
#781=ORIENTED_EDGE('',*,*,#536,.F.);
#782=ORIENTED_EDGE('',*,*,#559,.T.);
#783=ORIENTED_EDGE('',*,*,#579,.F.);
#784=ORIENTED_EDGE('',*,*,#580,.T.);
#785=ORIENTED_EDGE('',*,*,#544,.F.);
#786=ORIENTED_EDGE('',*,*,#578,.T.);
#787=ORIENTED_EDGE('',*,*,#581,.F.);
#788=ORIENTED_EDGE('',*,*,#524,.F.);
#789=ORIENTED_EDGE('',*,*,#550,.F.);
#790=ORIENTED_EDGE('',*,*,#580,.F.);
#791=ORIENTED_EDGE('',*,*,#582,.F.);
#792=ORIENTED_EDGE('',*,*,#528,.F.);
#793=ORIENTED_EDGE('',*,*,#552,.F.);
#794=ORIENTED_EDGE('',*,*,#519,.F.);
#795=ORIENTED_EDGE('',*,*,#583,.F.);
#796=ORIENTED_EDGE('',*,*,#531,.F.);
#797=ORIENTED_EDGE('',*,*,#554,.F.);
#798=ORIENTED_EDGE('',*,*,#512,.T.);
#799=ORIENTED_EDGE('',*,*,#584,.F.);
#800=ORIENTED_EDGE('',*,*,#557,.T.);
#801=ORIENTED_EDGE('',*,*,#585,.T.);
#802=ORIENTED_EDGE('',*,*,#566,.F.);
#803=ORIENTED_EDGE('',*,*,#479,.F.);
#804=ORIENTED_EDGE('',*,*,#481,.F.);
#805=ORIENTED_EDGE('',*,*,#565,.T.);
#806=ORIENTED_EDGE('',*,*,#586,.F.);
#807=ORIENTED_EDGE('',*,*,#558,.F.);
#808=ORIENTED_EDGE('',*,*,#568,.T.);
#809=ORIENTED_EDGE('',*,*,#587,.T.);
#810=ORIENTED_EDGE('',*,*,#514,.F.);
#811=ORIENTED_EDGE('',*,*,#588,.F.);
#812=ORIENTED_EDGE('',*,*,#589,.F.);
#813=ORIENTED_EDGE('',*,*,#511,.F.);
#814=ORIENTED_EDGE('',*,*,#590,.F.);
#815=ORIENTED_EDGE('',*,*,#571,.T.);
#816=ORIENTED_EDGE('',*,*,#572,.T.);
#817=ORIENTED_EDGE('',*,*,#590,.T.);
#818=ORIENTED_EDGE('',*,*,#507,.F.);
#819=ORIENTED_EDGE('',*,*,#591,.T.);
#820=ORIENTED_EDGE('',*,*,#575,.T.);
#821=ORIENTED_EDGE('',*,*,#592,.T.);
#822=ORIENTED_EDGE('',*,*,#518,.F.);
#823=ORIENTED_EDGE('',*,*,#593,.F.);
#824=ORIENTED_EDGE('',*,*,#594,.F.);
#825=ORIENTED_EDGE('',*,*,#525,.T.);
#826=ORIENTED_EDGE('',*,*,#595,.F.);
#827=ORIENTED_EDGE('',*,*,#561,.F.);
#828=ORIENTED_EDGE('',*,*,#573,.T.);
#829=ORIENTED_EDGE('',*,*,#591,.F.);
#830=ORIENTED_EDGE('',*,*,#526,.F.);
#831=ORIENTED_EDGE('',*,*,#596,.F.);
#832=ORIENTED_EDGE('',*,*,#569,.T.);
#833=ORIENTED_EDGE('',*,*,#588,.T.);
#834=ORIENTED_EDGE('',*,*,#529,.F.);
#835=ORIENTED_EDGE('',*,*,#597,.F.);
#836=ORIENTED_EDGE('',*,*,#579,.T.);
#837=ORIENTED_EDGE('',*,*,#586,.T.);
#838=ORIENTED_EDGE('',*,*,#564,.F.);
#839=ORIENTED_EDGE('',*,*,#598,.F.);
#840=ORIENTED_EDGE('',*,*,#587,.F.);
#841=ORIENTED_EDGE('',*,*,#567,.T.);
#842=ORIENTED_EDGE('',*,*,#585,.F.);
#843=ORIENTED_EDGE('',*,*,#577,.F.);
#844=ORIENTED_EDGE('',*,*,#581,.T.);
#845=ORIENTED_EDGE('',*,*,#598,.T.);
#846=ORIENTED_EDGE('',*,*,#563,.F.);
#847=ORIENTED_EDGE('',*,*,#599,.T.);
#848=ORIENTED_EDGE('',*,*,#576,.T.);
#849=ORIENTED_EDGE('',*,*,#594,.T.);
#850=ORIENTED_EDGE('',*,*,#560,.F.);
#851=ORIENTED_EDGE('',*,*,#593,.T.);
#852=ORIENTED_EDGE('',*,*,#582,.T.);
#853=ORIENTED_EDGE('',*,*,#599,.F.);
#854=ORIENTED_EDGE('',*,*,#562,.F.);
#855=ORIENTED_EDGE('',*,*,#595,.T.);
#856=ORIENTED_EDGE('',*,*,#583,.T.);
#857=ORIENTED_EDGE('',*,*,#592,.F.);
#858=ORIENTED_EDGE('',*,*,#574,.F.);
#859=ORIENTED_EDGE('',*,*,#596,.T.);
#860=ORIENTED_EDGE('',*,*,#584,.T.);
#861=ORIENTED_EDGE('',*,*,#589,.T.);
#862=ORIENTED_EDGE('',*,*,#570,.F.);
#863=ORIENTED_EDGE('',*,*,#597,.T.);
#864=PLANE('',#967);
#865=PLANE('',#972);
#866=PLANE('',#974);
#867=PLANE('',#975);
#868=PLANE('',#976);
#869=PLANE('',#981);
#870=PLANE('',#990);
#871=PLANE('',#992);
#872=PLANE('',#1005);
#873=PLANE('',#1006);
#874=PLANE('',#1009);
#875=PLANE('',#1010);
#876=PLANE('',#1013);
#877=PLANE('',#1014);
#878=PLANE('',#1019);
#879=PLANE('',#1021);
#880=PLANE('',#1023);
#881=PLANE('',#1024);
#882=PLANE('',#1025);
#883=PLANE('',#1034);
#884=PLANE('',#1039);
#885=PLANE('',#1042);
#886=PLANE('',#1043);
#887=PLANE('',#1044);
#888=PLANE('',#1045);
#889=PLANE('',#1046);
#890=PLANE('',#1047);
#891=PLANE('',#1054);
#892=PLANE('',#1055);
#893=PLANE('',#1057);
#894=PLANE('',#1058);
#895=ADVANCED_FACE('',(#234,#230),#864,.T.);
#896=ADVANCED_FACE('',(#235),#219,.F.);
#897=ADVANCED_FACE('',(#236,#231),#865,.T.);
#898=ADVANCED_FACE('',(#237),#866,.T.);
#899=ADVANCED_FACE('',(#238),#867,.T.);
#900=ADVANCED_FACE('',(#239),#868,.T.);
#901=ADVANCED_FACE('',(#240),#220,.F.);
#902=ADVANCED_FACE('',(#241),#221,.F.);
#903=ADVANCED_FACE('',(#242,#232),#869,.T.);
#904=ADVANCED_FACE('',(#243),#870,.T.);
#905=ADVANCED_FACE('',(#244),#222,.T.);
#906=ADVANCED_FACE('',(#245),#871,.T.);
#907=ADVANCED_FACE('',(#246),#223,.T.);
#908=ADVANCED_FACE('',(#247),#224,.F.);
#909=ADVANCED_FACE('',(#248),#225,.T.);
#910=ADVANCED_FACE('',(#249),#226,.T.);
#911=ADVANCED_FACE('',(#250),#872,.T.);
#912=ADVANCED_FACE('',(#251),#873,.T.);
#913=ADVANCED_FACE('',(#252),#17,.T.);
#914=ADVANCED_FACE('',(#253),#874,.T.);
#915=ADVANCED_FACE('',(#254),#15,.T.);
#916=ADVANCED_FACE('',(#255),#875,.T.);
#917=ADVANCED_FACE('',(#256),#18,.F.);
#918=ADVANCED_FACE('',(#257),#876,.T.);
#919=ADVANCED_FACE('',(#258),#877,.T.);
#920=ADVANCED_FACE('',(#259),#19,.T.);
#921=ADVANCED_FACE('',(#260),#20,.T.);
#922=ADVANCED_FACE('',(#261),#21,.F.);
#923=ADVANCED_FACE('',(#262),#878,.T.);
#924=ADVANCED_FACE('',(#263),#22,.T.);
#925=ADVANCED_FACE('',(#264),#879,.T.);
#926=ADVANCED_FACE('',(#265),#23,.T.);
#927=ADVANCED_FACE('',(#266),#880,.T.);
#928=ADVANCED_FACE('',(#267),#881,.T.);
#929=ADVANCED_FACE('',(#268,#233),#882,.T.);
#930=ADVANCED_FACE('',(#269),#883,.T.);
#931=ADVANCED_FACE('',(#270),#227,.F.);
#932=ADVANCED_FACE('',(#271),#228,.T.);
#933=ADVANCED_FACE('',(#272),#884,.T.);
#934=ADVANCED_FACE('',(#273),#229,.T.);
#935=ADVANCED_FACE('',(#274),#885,.T.);
#936=ADVANCED_FACE('',(#275),#886,.T.);
#937=ADVANCED_FACE('',(#276),#887,.T.);
#938=ADVANCED_FACE('',(#277),#888,.T.);
#939=ADVANCED_FACE('',(#278),#889,.T.);
#940=ADVANCED_FACE('',(#279),#16,.T.);
#941=ADVANCED_FACE('',(#280),#890,.T.);
#942=ADVANCED_FACE('',(#281),#24,.T.);
#943=ADVANCED_FACE('',(#282),#25,.F.);
#944=ADVANCED_FACE('',(#283),#26,.T.);
#945=ADVANCED_FACE('',(#284),#27,.T.);
#946=ADVANCED_FACE('',(#285),#28,.T.);
#947=ADVANCED_FACE('',(#286),#29,.F.);
#948=ADVANCED_FACE('',(#287),#891,.T.);
#949=ADVANCED_FACE('',(#288),#892,.T.);
#950=ADVANCED_FACE('',(#289),#30,.T.);
#951=ADVANCED_FACE('',(#290),#893,.T.);
#952=ADVANCED_FACE('',(#291),#894,.T.);
#953=CLOSED_SHELL('',(#895,#896,#897,#898,#899,#900,#901,#902,#903,#904,
#905,#906,#907,#908,#909,#910,#911,#912,#913,#914,#915,#916,#917,#918,#919,
#920,#921,#922,#923,#924,#925,#926,#927,#928,#929,#930,#931,#932,#933,#934,
#935,#936,#937,#938,#939,#940,#941,#942,#943,#944,#945,#946,#947,#948,#949,
#950,#951,#952));
#954=DERIVED_UNIT_ELEMENT(#956,1.);
#955=DERIVED_UNIT_ELEMENT(#1669,-3.);
#956=(
MASS_UNIT()
NAMED_UNIT(*)
SI_UNIT(.KILO.,.GRAM.)
);
#957=DERIVED_UNIT((#954,#955));
#958=MEASURE_REPRESENTATION_ITEM('density measure',
POSITIVE_RATIO_MEASURE(7850.),#957);
#959=PROPERTY_DEFINITION_REPRESENTATION(#964,#961);
#960=PROPERTY_DEFINITION_REPRESENTATION(#965,#962);
#961=REPRESENTATION('material name',(#963),#1666);
#962=REPRESENTATION('density',(#958),#1666);
#963=DESCRIPTIVE_REPRESENTATION_ITEM('Steel','Steel');
#964=PROPERTY_DEFINITION('material property','material name',#1676);
#965=PROPERTY_DEFINITION('material property','density of part',#1676);
#966=AXIS2_PLACEMENT_3D('',#1337,#1059,#1060);
#967=AXIS2_PLACEMENT_3D('',#1338,#1061,#1062);
#968=AXIS2_PLACEMENT_3D('',#1340,#1063,#1064);
#969=AXIS2_PLACEMENT_3D('',#1342,#1065,#1066);
#970=AXIS2_PLACEMENT_3D('',#1343,#1067,#1068);
#971=AXIS2_PLACEMENT_3D('',#1345,#1069,#1070);
#972=AXIS2_PLACEMENT_3D('',#1347,#1072,#1073);
#973=AXIS2_PLACEMENT_3D('',#1349,#1074,#1075);
#974=AXIS2_PLACEMENT_3D('',#1350,#1076,#1077);
#975=AXIS2_PLACEMENT_3D('',#1359,#1082,#1083);
#976=AXIS2_PLACEMENT_3D('',#1369,#1089,#1090);
#977=AXIS2_PLACEMENT_3D('',#1379,#1096,#1097);
#978=AXIS2_PLACEMENT_3D('',#1382,#1099,#1100);
#979=AXIS2_PLACEMENT_3D('',#1383,#1101,#1102);
#980=AXIS2_PLACEMENT_3D('',#1385,#1103,#1104);
#981=AXIS2_PLACEMENT_3D('',#1387,#1106,#1107);
#982=AXIS2_PLACEMENT_3D('',#1390,#1108,#1109);
#983=AXIS2_PLACEMENT_3D('',#1394,#1111,#1112);
#984=AXIS2_PLACEMENT_3D('',#1399,#1115,#1116);
#985=AXIS2_PLACEMENT_3D('',#1403,#1118,#1119);
#986=AXIS2_PLACEMENT_3D('',#1405,#1120,#1121);
#987=AXIS2_PLACEMENT_3D('',#1409,#1123,#1124);
#988=AXIS2_PLACEMENT_3D('',#1413,#1126,#1127);
#989=AXIS2_PLACEMENT_3D('',#1417,#1129,#1130);
#990=AXIS2_PLACEMENT_3D('',#1419,#1132,#1133);
#991=AXIS2_PLACEMENT_3D('',#1428,#1138,#1139);
#992=AXIS2_PLACEMENT_3D('',#1452,#1141,#1142);
#993=AXIS2_PLACEMENT_3D('',#1461,#1147,#1148);
#994=AXIS2_PLACEMENT_3D('',#1464,#1149,#1150);
#995=AXIS2_PLACEMENT_3D('',#1468,#1152,#1153);
#996=AXIS2_PLACEMENT_3D('',#1470,#1155,#1156);
#997=AXIS2_PLACEMENT_3D('',#1475,#1158,#1159);
#998=AXIS2_PLACEMENT_3D('',#1478,#1161,#1162);
#999=AXIS2_PLACEMENT_3D('',#1479,#1163,#1164);
#1000=AXIS2_PLACEMENT_3D('',#1481,#1165,#1166);
#1001=AXIS2_PLACEMENT_3D('',#1483,#1167,#1168);
#1002=AXIS2_PLACEMENT_3D('',#1485,#1170,#1171);
#1003=AXIS2_PLACEMENT_3D('',#1487,#1172,#1173);
#1004=AXIS2_PLACEMENT_3D('',#1489,#1174,#1175);
#1005=AXIS2_PLACEMENT_3D('',#1491,#1177,#1178);
#1006=AXIS2_PLACEMENT_3D('',#1495,#1181,#1182);
#1007=AXIS2_PLACEMENT_3D('',#1499,#1185,#1186);
#1008=AXIS2_PLACEMENT_3D('',#1501,#1187,#1188);
#1009=AXIS2_PLACEMENT_3D('',#1503,#1190,#1191);
#1010=AXIS2_PLACEMENT_3D('',#1529,#1195,#1196);
#1011=AXIS2_PLACEMENT_3D('',#1531,#1198,#1199);
#1012=AXIS2_PLACEMENT_3D('',#1532,#1200,#1201);
#1013=AXIS2_PLACEMENT_3D('',#1533,#1202,#1203);
#1014=AXIS2_PLACEMENT_3D('',#1537,#1206,#1207);
#1015=AXIS2_PLACEMENT_3D('',#1541,#1211,#1212);
#1016=AXIS2_PLACEMENT_3D('',#1543,#1214,#1215);
#1017=AXIS2_PLACEMENT_3D('',#1544,#1216,#1217);
#1018=AXIS2_PLACEMENT_3D('',#1546,#1219,#1220);
#1019=AXIS2_PLACEMENT_3D('',#1547,#1221,#1222);
#1020=AXIS2_PLACEMENT_3D('',#1550,#1225,#1226);
#1021=AXIS2_PLACEMENT_3D('',#1551,#1227,#1228);
#1022=AXIS2_PLACEMENT_3D('',#1554,#1231,#1232);
#1023=AXIS2_PLACEMENT_3D('',#1555,#1233,#1234);
#1024=AXIS2_PLACEMENT_3D('',#1559,#1237,#1238);
#1025=AXIS2_PLACEMENT_3D('',#1563,#1241,#1242);
#1026=AXIS2_PLACEMENT_3D('',#1568,#1244,#1245);
#1027=AXIS2_PLACEMENT_3D('',#1570,#1246,#1247);
#1028=AXIS2_PLACEMENT_3D('',#1574,#1249,#1250);
#1029=AXIS2_PLACEMENT_3D('',#1579,#1253,#1254);
#1030=AXIS2_PLACEMENT_3D('',#1583,#1256,#1257);
#1031=AXIS2_PLACEMENT_3D('',#1587,#1259,#1260);
#1032=AXIS2_PLACEMENT_3D('',#1591,#1262,#1263);
#1033=AXIS2_PLACEMENT_3D('',#1594,#1265,#1266);
#1034=AXIS2_PLACEMENT_3D('',#1595,#1267,#1268);
#1035=AXIS2_PLACEMENT_3D('',#1597,#1270,#1271);
#1036=AXIS2_PLACEMENT_3D('',#1598,#1272,#1273);
#1037=AXIS2_PLACEMENT_3D('',#1599,#1274,#1275);
#1038=AXIS2_PLACEMENT_3D('',#1602,#1277,#1278);
#1039=AXIS2_PLACEMENT_3D('',#1603,#1279,#1280);
#1040=AXIS2_PLACEMENT_3D('',#1607,#1283,#1284);
#1041=AXIS2_PLACEMENT_3D('',#1608,#1285,#1286);
#1042=AXIS2_PLACEMENT_3D('',#1609,#1287,#1288);
#1043=AXIS2_PLACEMENT_3D('',#1611,#1290,#1291);
#1044=AXIS2_PLACEMENT_3D('',#1613,#1293,#1294);
#1045=AXIS2_PLACEMENT_3D('',#1615,#1296,#1297);
#1046=AXIS2_PLACEMENT_3D('',#1617,#1299,#1300);
#1047=AXIS2_PLACEMENT_3D('',#1643,#1304,#1305);
#1048=AXIS2_PLACEMENT_3D('',#1645,#1307,#1308);
#1049=AXIS2_PLACEMENT_3D('',#1648,#1311,#1312);
#1050=AXIS2_PLACEMENT_3D('',#1651,#1315,#1316);
#1051=AXIS2_PLACEMENT_3D('',#1653,#1318,#1319);
#1052=AXIS2_PLACEMENT_3D('',#1655,#1321,#1322);
#1053=AXIS2_PLACEMENT_3D('',#1657,#1324,#1325);
#1054=AXIS2_PLACEMENT_3D('',#1658,#1326,#1327);
#1055=AXIS2_PLACEMENT_3D('',#1660,#1329,#1330);
#1056=AXIS2_PLACEMENT_3D('',#1661,#1331,#1332);
#1057=AXIS2_PLACEMENT_3D('',#1662,#1333,#1334);
#1058=AXIS2_PLACEMENT_3D('',#1663,#1335,#1336);
#1059=DIRECTION('axis',(0.,0.,1.));
#1060=DIRECTION('refdir',(1.,0.,0.));
#1061=DIRECTION('center_axis',(1.,0.,0.));
#1062=DIRECTION('ref_axis',(0.,-1.,0.));
#1063=DIRECTION('center_axis',(1.,0.,0.));
#1064=DIRECTION('ref_axis',(0.,0.964235201833695,-0.265048062706999));
#1065=DIRECTION('center_axis',(1.,2.72250605760768E-16,4.34301284071633E-16));
#1066=DIRECTION('ref_axis',(1.73472347597679E-16,0.599373747337374,-0.800469306721222));
#1067=DIRECTION('center_axis',(1.,2.90985444350012E-17,1.05859445188124E-16));
#1068=DIRECTION('ref_axis',(0.,0.964235201833695,-0.265048062706999));
#1069=DIRECTION('center_axis',(1.,0.,0.));
#1070=DIRECTION('ref_axis',(0.,0.964235201833695,-0.265048062706999));
#1071=DIRECTION('',(-1.,-2.90985444350012E-17,-1.05859445188124E-16));
#1072=DIRECTION('center_axis',(1.,0.,0.));
#1073=DIRECTION('ref_axis',(0.,-1.,0.));
#1074=DIRECTION('center_axis',(1.,-3.33276195425444E-17,1.0677410798706E-17));
#1075=DIRECTION('ref_axis',(0.,-0.813826036051074,0.58110858111492));
#1076=DIRECTION('center_axis',(3.10724621331984E-16,0.043619387365336,0.999048221581858));
#1077=DIRECTION('ref_axis',(-1.,0.,3.11020644068605E-16));
#1078=DIRECTION('',(-1.,6.66133814775094E-15,0.));
#1079=DIRECTION('',(6.27520887198932E-16,-0.999048221581858,0.0436193873653366));
#1080=DIRECTION('',(-1.,6.51330841113424E-15,-6.80936788436762E-15));
#1081=DIRECTION('',(9.41281330798397E-16,-0.999048221581858,0.0436193873653382));
#1082=DIRECTION('center_axis',(0.707106781186548,0.0308435645972316,0.706433772212892));
#1083=DIRECTION('ref_axis',(0.0435779502517473,-0.999050029904337,0.));
#1084=DIRECTION('',(-0.706770036377106,-6.34712759489715E-15,0.707443365704637));
#1085=DIRECTION('',(-0.706770036377103,-9.2068224453453E-15,0.70744336570464));
#1086=DIRECTION('',(0.568768071890519,0.568768071890508,-0.594142879108968));
#1087=DIRECTION('',(-1.90268085031697E-15,-0.999048221581858,0.0436193873653408));
#1088=DIRECTION('',(-0.585566062239599,0.585566062239575,0.56055755592664));
#1089=DIRECTION('center_axis',(-0.707106781186547,0.0308435645972321,0.706433772212893));
#1090=DIRECTION('ref_axis',(0.0435779502517481,0.999050029904337,0.));
#1091=DIRECTION('',(0.585566062239591,0.585566062239603,0.56055755592662));
#1092=DIRECTION('',(0.,-0.999048221581858,0.0436193873653352));
#1093=DIRECTION('',(-0.568768071890512,0.568768071890512,-0.594142879108972));
#1094=DIRECTION('',(-0.706770036377104,5.52409346720718E-15,-0.707443365704639));
#1095=DIRECTION('',(-0.706770036377103,1.14248296708148E-14,-0.70744336570464));
#1096=DIRECTION('center_axis',(1.,-6.6063383914511E-17,-2.07674633966497E-16));
#1097=DIRECTION('ref_axis',(0.,0.952945543963476,-0.303141534996699));
#1098=DIRECTION('',(-1.,6.6063383914511E-17,2.07674633966497E-16));
#1099=DIRECTION('center_axis',(1.,8.7502906016236E-17,4.95884626774326E-16));
#1100=DIRECTION('ref_axis',(2.77555756156286E-16,0.599373747337374,-0.800469306721222));
#1101=DIRECTION('center_axis',(1.,0.,0.));
#1102=DIRECTION('ref_axis',(0.,-1.,0.));
#1103=DIRECTION('center_axis',(1.,-6.66552390850889E-17,2.13548215974121E-17));
#1104=DIRECTION('ref_axis',(-6.83214169000096E-17,-0.813826036051074,0.58110858111492));
#1105=DIRECTION('',(-1.,0.,0.));
#1106=DIRECTION('center_axis',(-1.,0.,0.));
#1107=DIRECTION('ref_axis',(0.,1.,0.));
#1108=DIRECTION('center_axis',(-1.,-9.15660617507919E-14,2.11774497267122E-13));
#1109=DIRECTION('ref_axis',(2.11682523361857E-13,-3.5527136788004E-14,1.));
#1110=DIRECTION('',(0.,1.,0.));
#1111=DIRECTION('center_axis',(-1.,-5.51379185137839E-15,5.51379185137838E-15));
#1112=DIRECTION('ref_axis',(-5.45595314958649E-15,2.03012210217172E-15,
-1.));
#1113=DIRECTION('',(0.,0.,-1.));
#1114=DIRECTION('',(3.31657826750252E-11,3.31663225070173E-11,-1.));
#1115=DIRECTION('center_axis',(-1.,8.0881171010224E-14,-1.77486761479764E-14));
#1116=DIRECTION('ref_axis',(8.19461457693676E-14,0.936119551803728,-0.351681936884436));
#1117=DIRECTION('',(-1.72877511633132E-11,-0.351681936900695,-0.936119551797619));
#1118=DIRECTION('center_axis',(-1.,0.,0.));
#1119=DIRECTION('ref_axis',(0.,0.771814698510341,-0.635847521944838));
#1120=DIRECTION('center_axis',(-1.,-1.23657345266884E-14,-4.28066363308854E-16));
#1121=DIRECTION('ref_axis',(9.2855016605013E-15,-0.77181490688845,0.635847269007875));
#1122=DIRECTION('',(0.,0.467887720419034,-0.883787916347061));
#1123=DIRECTION('center_axis',(-1.,-2.60739506788335E-14,6.34351294639733E-15));
#1124=DIRECTION('ref_axis',(-1.77635683940034E-14,0.467887720419,-0.883787916347079));
#1125=DIRECTION('',(0.,-0.883787916347031,-0.46788772041909));
#1126=DIRECTION('center_axis',(-1.,1.09988048486148E-14,3.57461157580017E-14));
#1127=DIRECTION('ref_axis',(-2.63492931177713E-14,-0.883787916347073,-0.467887720419011));
#1128=DIRECTION('',(0.,-0.467887720419032,0.883787916347062));
#1129=DIRECTION('center_axis',(-1.,0.,0.));
#1130=DIRECTION('ref_axis',(0.,-0.70023345760186,0.7139139337868));
#1131=DIRECTION('',(0.,0.684993214678189,0.728549446396633));
#1132=DIRECTION('center_axis',(0.,-0.883787916347062,-0.467887720419033));
#1133=DIRECTION('ref_axis',(0.,-0.467887720419033,0.883787916347062));
#1134=DIRECTION('',(-3.95537328431956E-10,-0.467887720419033,0.883787916347062));
#1135=DIRECTION('',(0.999999999994968,2.80369870280862E-6,1.48431108138483E-6));
#1136=DIRECTION('',(-8.49211853246617E-11,-0.467887720419033,0.883787916347062));
#1137=DIRECTION('',(1.,1.41124445463575E-11,-2.6656721274886E-11));
#1138=DIRECTION('center_axis',(-1.,4.78792777411214E-16,1.03840877810525E-15));
#1139=DIRECTION('ref_axis',(9.43689570931389E-16,0.877751084242376,0.479116931564033));
#1140=DIRECTION('',(1.,-4.78792777411214E-16,-1.03840877810525E-15));
#1141=DIRECTION('center_axis',(0.,0.,1.));
#1142=DIRECTION('ref_axis',(-1.,0.,0.));
#1143=DIRECTION('',(0.,1.,0.));
#1144=DIRECTION('',(1.,0.,0.));
#1145=DIRECTION('',(0.,1.,0.));
#1146=DIRECTION('',(1.,0.,0.));
#1147=DIRECTION('center_axis',(1.,3.44930034315261E-16,1.82610018166899E-16));
#1148=DIRECTION('ref_axis',(0.,0.467887720419025,-0.883787916347066));
#1149=DIRECTION('center_axis',(-1.,-5.30295594540576E-14,1.48054705265595E-14));
#1150=DIRECTION('ref_axis',(-3.79252185211951E-14,0.46788772041904,-0.883787916347058));
#1151=DIRECTION('',(-1.,0.,0.));
#1152=DIRECTION('center_axis',(-1.,-5.32376996428465E-14,1.49023683789142E-14));
#1153=DIRECTION('ref_axis',(-3.80584452841501E-14,0.467887720419041,-0.883787916347058));
#1154=DIRECTION('',(-1.,0.,0.));
#1155=DIRECTION('center_axis',(1.,1.0284262606351E-16,-4.96888148898979E-16));
#1156=DIRECTION('ref_axis',(1.77635683940027E-16,-0.994893406256615,0.100931215127482));
#1157=DIRECTION('',(1.,0.,0.));
#1158=DIRECTION('center_axis',(-1.,-8.10212595069388E-15,-1.27027273660719E-15));
#1159=DIRECTION('ref_axis',(5.41788836017083E-15,-0.771814906888448,0.635847269007877));
#1160=DIRECTION('',(1.,-6.63902142150619E-9,-8.05869007081129E-9));
#1161=DIRECTION('center_axis',(-1.,-1.21011168015714E-14,1.22764874910414E-15));
#1162=DIRECTION('ref_axis',(1.01252339845814E-14,-0.771814867963544,0.635847316256361));
#1163=DIRECTION('center_axis',(-1.,-1.06455435820497E-15,-9.33754968555116E-17));
#1164=DIRECTION('ref_axis',(-3.88578058618815E-16,0.467887720419057,-0.883787916347049));
#1165=DIRECTION('center_axis',(-1.,1.20220324996511E-11,-3.65500971144035E-12));
#1166=DIRECTION('ref_axis',(-8.91486884313517E-12,-0.88378791625459,-0.467887720593703));
#1167=DIRECTION('center_axis',(-1.,5.04720897462841E-12,-1.50855204483392E-12));
#1168=DIRECTION('ref_axis',(-3.75477426928231E-12,-0.883787916289867,-0.467887720527067));
#1169=DIRECTION('',(1.,0.,0.));
#1170=DIRECTION('center_axis',(-1.,-1.10004023868552E-16,-1.16998780387157E-16));
#1171=DIRECTION('ref_axis',(0.,-0.728549446396595,0.68499321467823));
#1172=DIRECTION('center_axis',(-1.,-1.72759405568856E-13,3.99558914765681E-13));
#1173=DIRECTION('ref_axis',(3.99458244260099E-13,-6.21724893790037E-15,
1.));
#1174=DIRECTION('center_axis',(-1.,-1.73832445354998E-13,4.02040647155468E-13));
#1175=DIRECTION('ref_axis',(4.02122779519228E-13,-2.39808173319031E-14,
1.));
#1176=DIRECTION('',(1.,0.,1.98951966012828E-14));
#1177=DIRECTION('center_axis',(-0.707106781186548,-0.707106781186547,-4.31775426138038E-15));
#1178=DIRECTION('ref_axis',(-0.707106781186547,0.707106781186548,0.));
#1179=DIRECTION('',(-0.707106781186548,0.707106781186548,0.));
#1180=DIRECTION('',(0.,0.,-1.));
#1181=DIRECTION('center_axis',(-0.707106781186548,0.707106781186547,3.72896958937396E-16));
#1182=DIRECTION('ref_axis',(0.707106781186547,0.707106781186548,0.));
#1183=DIRECTION('',(1.75323614181167E-15,-3.46835845445352E-15,-1.));
#1184=DIRECTION('',(-0.707106781437365,-0.70710678093573,4.52186628261322E-13));
#1185=DIRECTION('center_axis',(1.,2.86228069607391E-13,1.1570233600418E-14));
#1186=DIRECTION('ref_axis',(-2.85630597762001E-13,0.99935933891538,-0.0357898270827793));
#1187=DIRECTION('center_axis',(-1.,1.96940874915379E-13,-3.86140732737956E-14));
#1188=DIRECTION('ref_axis',(1.97952765290675E-13,0.936119551803695,-0.351681936884522));
#1189=DIRECTION('',(0.707106781437373,0.661936482846752,-0.248676682304054));
#1190=DIRECTION('center_axis',(-0.707106781186548,-1.57009245868377E-16,
0.707106781186547));
#1191=DIRECTION('ref_axis',(-2.2204460492503E-16,1.,0.));
#1192=DIRECTION('',(-0.707106781186548,0.,-0.707106781186548));
#1193=DIRECTION('',(0.707106781186548,0.,0.707106781186548));
#1194=DIRECTION('',(-0.707106781186509,0.624932428779801,0.330846579942174));
#1195=DIRECTION('center_axis',(-0.707106781186549,-0.624932428779735,-0.330846579942213));
#1196=DIRECTION('ref_axis',(-0.662225979061875,0.749304178992444,0.));
#1197=DIRECTION('',(-0.707106781186546,0.624932428731217,0.330846580033865));
#1198=DIRECTION('center_axis',(-1.,5.46377386042827E-15,-2.2867774138883E-15));
#1199=DIRECTION('ref_axis',(5.73749387544464E-15,0.989443450481767,-0.144919489023167));
#1200=DIRECTION('center_axis',(-1.,-1.3580265115432E-14,1.35802651154319E-14));
#1201=DIRECTION('ref_axis',(-1.35447209004269E-14,2.368475785867E-15,-1.));
#1202=DIRECTION('center_axis',(-0.707106781186547,0.661936483081708,-0.248676682391858));
#1203=DIRECTION('ref_axis',(0.683404577625141,0.730039850474618,0.));
#1204=DIRECTION('',(-9.73972444467543E-16,-0.35168193688451,-0.9361195518037));
#1205=DIRECTION('',(0.707106781186536,0.661936483081698,-0.248676682391913));
#1206=DIRECTION('center_axis',(-0.707106781186549,0.624932428779735,0.330846579942213));
#1207=DIRECTION('ref_axis',(0.662225979061875,0.749304178992444,0.));
#1208=DIRECTION('',(-0.707106781186528,-0.624932428779705,-0.330846579942315));
#1209=DIRECTION('',(-3.33066907387546E-15,0.467887720419031,-0.883787916347063));
#1210=DIRECTION('',(0.707106781186527,0.624932428779703,0.330846579942321));
#1211=DIRECTION('center_axis',(1.,-8.09912954011883E-15,-3.47875168153468E-14));
#1212=DIRECTION('ref_axis',(1.92808277739754E-14,0.942264214807868,0.334870347287591));
#1213=DIRECTION('',(-0.70710678118651,-0.330846579942194,0.62493242877979));
#1214=DIRECTION('center_axis',(1.,-1.47914342750429E-13,1.63780876768434E-13));
#1215=DIRECTION('ref_axis',(1.9928714853125E-13,0.924057589862287,-0.382253280715681));
#1216=DIRECTION('center_axis',(-1.,0.,0.));
#1217=DIRECTION('ref_axis',(0.,0.771814740017626,-0.635847471561793));
#1218=DIRECTION('',(0.707106781186563,0.545755554516638,-0.449611915671967));
#1219=DIRECTION('center_axis',(-1.,2.3646452440925E-13,-8.2107760385616E-15));
#1220=DIRECTION('ref_axis',(-2.17101531212768E-13,-0.930806324035152,-0.36551277287691));
#1221=DIRECTION('center_axis',(-0.70710678118653,0.330846579942222,-0.624932428779752));
#1222=DIRECTION('ref_axis',(0.423793448413228,0.90575886033868,0.));
#1223=DIRECTION('',(-9.99200722162631E-15,-0.883787916347082,-0.467887720418995));
#1224=DIRECTION('',(0.707106781186578,0.330846579942175,-0.624932428779723));
#1225=DIRECTION('center_axis',(1.,-1.09179495524884E-13,5.83647057942066E-14));
#1226=DIRECTION('ref_axis',(9.15559492607684E-14,0.334870347287546,-0.942264214807884));
#1227=DIRECTION('center_axis',(-0.707106781186545,-0.515162253976766,0.484363347165722));
#1228=DIRECTION('ref_axis',(-0.588846412405991,0.808244952100905,0.));
#1229=DIRECTION('',(0.,0.684993214678189,0.728549446396633));
#1230=DIRECTION('',(0.707106781186601,-0.515162253976782,0.484363347165624));
#1231=DIRECTION('center_axis',(1.,1.53044962458057E-13,-5.62103174687911E-13));
#1232=DIRECTION('ref_axis',(5.1929525568861E-13,-0.671487228595371,0.741016127917138));
#1233=DIRECTION('center_axis',(0.,-1.,0.));
#1234=DIRECTION('ref_axis',(0.,0.,1.));
#1235=DIRECTION('',(1.,1.95399252334028E-15,0.));
#1236=DIRECTION('',(0.,0.,-1.));
#1237=DIRECTION('center_axis',(0.,1.,0.));
#1238=DIRECTION('ref_axis',(0.,0.,-1.));
#1239=DIRECTION('',(-2.11695673312044E-15,-2.11695673312044E-15,-1.));
#1240=DIRECTION('',(1.,0.,3.90798504668056E-15));
#1241=DIRECTION('center_axis',(1.,0.,0.));
#1242=DIRECTION('ref_axis',(0.,-1.,0.));
#1243=DIRECTION('',(5.6507258131975E-10,-0.467887720918437,0.883787916082671));
#1244=DIRECTION('center_axis',(-1.,-7.59662166316189E-11,4.00095942101103E-11));
#1245=DIRECTION('ref_axis',(8.40718202076768E-11,-0.771814913161755,0.635847261393106));
#1246=DIRECTION('center_axis',(1.,0.,0.));
#1247=DIRECTION('ref_axis',(-1.3256394408083E-12,0.792292085306499,-0.610141992949739));
#1248=DIRECTION('',(0.,0.351681936884512,0.936119551803699));
#1249=DIRECTION('center_axis',(1.,-4.41194015285178E-14,1.70526556312775E-14));
#1250=DIRECTION('ref_axis',(4.41284435860175E-14,1.,-6.20789969091433E-14));
#1251=DIRECTION('',(-4.08064375109082E-11,4.08069484011381E-11,-1.));
#1252=DIRECTION('',(0.,5.17634205251437E-15,-1.));
#1253=DIRECTION('center_axis',(1.,5.82011362089942E-15,-5.82011362089938E-15));
#1254=DIRECTION('ref_axis',(-5.83660104374371E-15,1.,3.80647894157198E-15));
#1255=DIRECTION('',(0.,1.,0.));
#1256=DIRECTION('center_axis',(-1.,-7.7258864602219E-14,1.78684732069123E-13));
#1257=DIRECTION('ref_axis',(1.78819921832939E-13,-2.36847578586675E-15,
1.));
#1258=DIRECTION('',(0.,-0.684993214678189,-0.728549446396633));
#1259=DIRECTION('center_axis',(-1.,-1.51799018562476E-16,-2.71010425333832E-17));
#1260=DIRECTION('ref_axis',(5.92064205199592E-17,-0.700409311489776,0.713741407218621));
#1261=DIRECTION('',(0.,-0.467887720419032,0.883787916347062));
#1262=DIRECTION('center_axis',(-1.,1.09988048486159E-14,3.57461157580046E-14));
#1263=DIRECTION('ref_axis',(-2.63492931177705E-14,-0.883787916347055,-0.467887720419046));
#1264=DIRECTION('',(-1.49910217572394E-9,0.883787917048476,0.467887719094138));
#1265=DIRECTION('center_axis',(-1.,-2.44842978503666E-14,1.32284477729317E-14));
#1266=DIRECTION('ref_axis',(-2.31913253723784E-14,0.467887720420111,-0.883787916346491));
#1267=DIRECTION('center_axis',(0.,0.883787916347062,0.467887720419033));
#1268=DIRECTION('ref_axis',(0.,0.467887720419033,-0.883787916347062));
#1269=DIRECTION('',(0.,-0.467887720419031,0.883787916347063));
#1270=DIRECTION('center_axis',(1.,0.,0.));
#1271=DIRECTION('ref_axis',(0.,0.70710678118655,-0.707106781186545));
#1272=DIRECTION('center_axis',(1.,1.3580265115432E-14,-1.3580265115432E-14));
#1273=DIRECTION('ref_axis',(-1.36187357687352E-14,1.,-2.36847578586699E-15));
#1274=DIRECTION('center_axis',(-1.,-5.57644349890266E-32,8.18843617919217E-16));
#1275=DIRECTION('ref_axis',(0.,1.,0.));
#1276=DIRECTION('',(1.,0.,0.));
#1277=DIRECTION('center_axis',(1.,-1.33830239349356E-13,2.72136264355629E-14));
#1278=DIRECTION('ref_axis',(1.33848487848815E-13,1.,2.66453525910049E-15));
#1279=DIRECTION('center_axis',(2.34691627360541E-16,0.936119551803699,-0.351681936884512));
#1280=DIRECTION('ref_axis',(0.,-0.351681936884512,-0.936119551803699));
#1281=DIRECTION('',(-1.,-4.2632564145606E-15,-1.20792265079217E-14));
#1282=DIRECTION('',(0.,0.351681936884512,0.936119551803699));
#1283=DIRECTION('center_axis',(-1.,4.78792777411214E-16,1.03840877810525E-15));
#1284=DIRECTION('ref_axis',(9.43689570931389E-16,0.877751084242376,0.479116931564033));
#1285=DIRECTION('center_axis',(1.,-4.78792777411214E-16,-1.03840877810525E-15));
#1286=DIRECTION('ref_axis',(9.43689570931389E-16,0.877751084242376,0.479116931564033));
#1287=DIRECTION('center_axis',(0.,0.467887720419033,-0.883787916347062));
#1288=DIRECTION('ref_axis',(1.,0.,0.));
#1289=DIRECTION('',(1.02140518265513E-14,0.883787916347082,0.467887720418995));
#1290=DIRECTION('center_axis',(-1.32756195201656E-16,-0.728549446396633,
0.684993214678189));
#1291=DIRECTION('ref_axis',(0.,0.684993214678189,0.728549446396633));
#1292=DIRECTION('',(1.2931613541444E-9,-0.684993214678189,-0.728549446396633));
#1293=DIRECTION('center_axis',(0.707106781186546,-0.707106781186549,-4.39625888431458E-15));
#1294=DIRECTION('ref_axis',(0.,-6.21724893790088E-15,1.));
#1295=DIRECTION('',(0.707106781186548,0.707106781186548,0.));
#1296=DIRECTION('center_axis',(0.707106781186548,0.707106781186548,3.53270803203849E-16));
#1297=DIRECTION('ref_axis',(0.,4.9960036108132E-16,-1.));
#1298=DIRECTION('',(0.707106781437365,-0.70710678093573,-4.39625888587397E-13));
#1299=DIRECTION('center_axis',(0.707106781186547,-4.31775426138038E-16,
0.707106781186548));
#1300=DIRECTION('ref_axis',(-0.707106781186548,0.,0.707106781186547));
#1301=DIRECTION('',(-0.707106781186548,0.,0.707106781186548));
#1302=DIRECTION('',(-0.707106781186548,0.,0.707106781186548));
#1303=DIRECTION('',(-0.707106781186509,-0.624932428779802,-0.330846579942171));
#1304=DIRECTION('center_axis',(0.707106781186547,-0.624932428779737,-0.330846579942213));
#1305=DIRECTION('ref_axis',(-0.662225979061877,-0.749304178992442,0.));
#1306=DIRECTION('',(0.707106781186548,0.62493242870128,0.330846580090407));
#1307=DIRECTION('center_axis',(-1.,-1.85650763755194E-13,-1.20251349277436E-14));
#1308=DIRECTION('ref_axis',(-1.78958932247643E-13,0.942264214807478,0.33487034728869));
#1309=DIRECTION('',(-0.707106783306584,0.330846578946713,-0.624932426907959));
#1310=DIRECTION('',(-0.707106783306604,0.624932426907844,0.330846578946889));
#1311=DIRECTION('center_axis',(1.,3.46249978481415E-14,3.01831125508937E-15));
#1312=DIRECTION('ref_axis',(3.33323982744899E-14,-0.930806323718988,-0.365512773682047));
#1313=DIRECTION('',(0.707106780909197,-0.624932429024882,-0.330846580071932));
#1314=DIRECTION('',(-0.707055493561182,0.5457954602705,-0.449644131033718));
#1315=DIRECTION('center_axis',(-1.,-2.35865640164841E-14,1.88974803462659E-13));
#1316=DIRECTION('ref_axis',(-1.85962635686732E-13,0.33487034728765,-0.942264214807847));
#1317=DIRECTION('',(-0.707106781186568,0.330846579942213,-0.624932428779714));
#1318=DIRECTION('center_axis',(-1.,-5.7862622599353E-14,-9.29582085592323E-15));
#1319=DIRECTION('ref_axis',(3.1965658912024E-14,-0.671487228595253,0.741016127917245));
#1320=DIRECTION('',(-0.707106781186501,-0.51516225397685,0.484363347165697));
#1321=DIRECTION('center_axis',(-1.,5.05732114666977E-13,-1.59563534991515E-13));
#1322=DIRECTION('ref_axis',(5.30221596953593E-13,0.94810645214556,-0.317953071065462));
#1323=DIRECTION('',(0.707106781437362,-0.661936482847081,0.248676682303209));
#1324=DIRECTION('center_axis',(1.,3.486421398168E-16,-1.051407566035E-15));
#1325=DIRECTION('ref_axis',(-1.0908333707545E-15,0.144919489023157,-0.989443450481768));
#1326=DIRECTION('center_axis',(0.707106781186547,0.661936483081708,-0.248676682391858));
#1327=DIRECTION('ref_axis',(0.683404577625141,-0.730039850474618,0.));
#1328=DIRECTION('',(-0.707124294477104,0.661920090319731,-0.248670517334439));
#1329=DIRECTION('center_axis',(0.707106781186552,0.624932428779733,0.330846579942212));
#1330=DIRECTION('ref_axis',(0.662225979061872,-0.749304178992447,0.));
#1331=DIRECTION('center_axis',(-1.,-1.08397766363197E-12,7.65088328057619E-13));
#1332=DIRECTION('ref_axis',(-1.3256394408083E-12,0.792292085306499,-0.610141992949739));
#1333=DIRECTION('center_axis',(0.707106781186541,0.330846579942214,-0.624932428779744));
#1334=DIRECTION('ref_axis',(0.423793448413214,-0.905758860338687,0.));
#1335=DIRECTION('center_axis',(0.707106781186547,-0.515162253976764,0.48436334716572));
#1336=DIRECTION('ref_axis',(-0.588846412405989,-0.808244952100906,0.));
#1337=CARTESIAN_POINT('',(0.,0.,0.));
#1338=CARTESIAN_POINT('Origin',(-0.499999999999997,-16.7616067894945,-23.7616067894946));
#1339=CARTESIAN_POINT('',(-0.499999999999997,-14.9284704036673,-19.469903874586));
#1340=CARTESIAN_POINT('Origin',(-0.499999999999997,-13.,-20.));
#1341=CARTESIAN_POINT('',(-0.499999999999996,-14.5247128703415,-19.5149735440053));
#1342=CARTESIAN_POINT('Origin',(-0.499999999999998,-13.,-20.));
#1343=CARTESIAN_POINT('Origin',(2.25,-13.,-20.));
#1344=CARTESIAN_POINT('',(2.49999999999997,-14.9284704036673,-19.469903874586));
#1345=CARTESIAN_POINT('Origin',(2.49999999999997,-13.,-20.));
#1346=CARTESIAN_POINT('',(2.25,-14.9284704036673,-19.469903874586));
#1347=CARTESIAN_POINT('Origin',(2.49999999999997,-4.875,-11.875));
#1348=CARTESIAN_POINT('',(2.49999999999997,-6.49999999999999,-20.));
#1349=CARTESIAN_POINT('Origin',(2.49999999999997,-13.,-20.));
#1350=CARTESIAN_POINT('Origin',(-1.49999999999999,-0.370480694635468,-2.6549701256424));
#1351=CARTESIAN_POINT('',(0.749999999999996,-1.2643254783029,-2.61594401957363));
#1352=CARTESIAN_POINT('',(-0.750000000000004,-1.26432547830289,-2.61594401957363));
#1353=CARTESIAN_POINT('',(0.749999999999996,-1.2643254783029,-2.61594401957363));
#1354=CARTESIAN_POINT('',(-0.75,-7.62745840244052,-2.33812363625358));
#1355=CARTESIAN_POINT('',(-0.750000000000004,-1.26432547830289,-2.61594401957363));
#1356=CARTESIAN_POINT('',(0.750000000000002,-7.62745840244053,-2.33812363625357));
#1357=CARTESIAN_POINT('',(0.750000000000002,-7.62745840244053,-2.33812363625357));
#1358=CARTESIAN_POINT('',(0.749999999999996,-1.2643254783029,-2.61594401957363));
#1359=CARTESIAN_POINT('Origin',(0.749999999999999,-0.943308395437334,-2.62995992810128));
#1360=CARTESIAN_POINT('',(3.,-1.26432547830288,-4.86808756119109));
#1361=CARTESIAN_POINT('',(3.,-1.26432547830288,-4.86808756119109));
#1362=CARTESIAN_POINT('',(3.,-7.6274584024405,-4.59026717787104));
#1363=CARTESIAN_POINT('',(3.,-7.6274584024405,-4.59026717787104));
#1364=CARTESIAN_POINT('',(3.5,-7.12745840244051,-5.11257399190695));
#1365=CARTESIAN_POINT('',(3.,-7.6274584024405,-4.59026717787104));
#1366=CARTESIAN_POINT('',(3.50000000000001,-1.76432547830287,-5.34673343231851));
#1367=CARTESIAN_POINT('',(3.50000000000001,-1.76432547830287,-5.34673343231851));
#1368=CARTESIAN_POINT('',(3.50000000000001,-1.76432547830287,-5.34673343231851));
#1369=CARTESIAN_POINT('Origin',(-0.750000000000003,-1.07769659343945,-2.62409241266073));
#1370=CARTESIAN_POINT('',(-2.5,-1.76432547830287,-4.34578074715518));
#1371=CARTESIAN_POINT('',(-2.00000000000001,-1.26432547830287,-3.86713487602779));
#1372=CARTESIAN_POINT('',(-2.5,-1.76432547830287,-4.34578074715518));
#1373=CARTESIAN_POINT('',(-2.5,-7.12745840244051,-4.11162130674365));
#1374=CARTESIAN_POINT('',(-2.5,-1.76432547830287,-4.34578074715518));
#1375=CARTESIAN_POINT('',(-2.,-7.62745840244051,-3.58931449270773));
#1376=CARTESIAN_POINT('',(-2.,-7.62745840244051,-3.58931449270773));
#1377=CARTESIAN_POINT('',(-0.75,-7.62745840244052,-2.33812363625358));
#1378=CARTESIAN_POINT('',(-0.750000000000004,-1.26432547830289,-2.61594401957363));
#1379=CARTESIAN_POINT('Origin',(-1.68946497775631,-13.,-20.));
#1380=CARTESIAN_POINT('',(-2.5,-14.5247128703415,-19.5149735440053));
#1381=CARTESIAN_POINT('',(-1.68946497775631,-14.5247128703415,-19.5149735440053));
#1382=CARTESIAN_POINT('Origin',(-2.5,-13.,-20.));
#1383=CARTESIAN_POINT('Origin',(2.99999999999997,-13.,-20.));
#1384=CARTESIAN_POINT('',(3.49999999999997,-6.49999999999999,-20.));
#1385=CARTESIAN_POINT('Origin',(3.49999999999997,-13.,-20.));
#1386=CARTESIAN_POINT('',(2.99999999999997,-6.49999999999999,-20.));
#1387=CARTESIAN_POINT('Origin',(-2.5,-23.1332474406837,-41.8021603096952));
#1388=CARTESIAN_POINT('',(-2.5,-14.7981331484831,-10.9725101779827));
#1389=CARTESIAN_POINT('',(-2.5,-13.7053089788881,-10.5));
#1390=CARTESIAN_POINT('Origin',(-2.50000000000032,-13.7053089788881,-12.));
#1391=CARTESIAN_POINT('',(-2.5,-10.6274584024405,-10.5));
#1392=CARTESIAN_POINT('',(-2.5,-13.7053089788881,-10.5));
#1393=CARTESIAN_POINT('',(-2.5,-7.12745840244051,-7.));
#1394=CARTESIAN_POINT('Origin',(-2.49999999999998,-10.6274584024405,-7.));
#1395=CARTESIAN_POINT('',(-2.5,-7.12745840244051,-4.11162130674365));
#1396=CARTESIAN_POINT('',(-2.49999999994088,-1.76432547788907,-9.69296265984041));
#1397=CARTESIAN_POINT('',(-2.5,-1.76432547830288,-4.34578074715518));
#1398=CARTESIAN_POINT('',(-2.49999999994088,-2.37118973578024,-13.0339410603888));
#1399=CARTESIAN_POINT('Origin',(-2.50000000000077,-11.2643254783033,-9.69296265984073));
#1400=CARTESIAN_POINT('',(-2.5,-5.97910336147226,-22.6376145266338));
#1401=CARTESIAN_POINT('',(-2.49999999982265,-2.37118973600161,-13.0339410603056));
#1402=CARTESIAN_POINT('',(-2.5,-7.21138976114758,-24.7688564145562));
#1403=CARTESIAN_POINT('Origin',(-2.5,-12.9999999999992,-20.0000000000005));
#1404=CARTESIAN_POINT('',(-2.5,-7.82724131314514,-30.8393988563743));
#1405=CARTESIAN_POINT('Origin',(-2.50000000000006,-2.9664077732363,-28.2660163940696));
#1406=CARTESIAN_POINT('',(-2.5,-6.42357815188803,-33.4907626054155));
#1407=CARTESIAN_POINT('',(-2.5,-7.82724131314514,-30.8393988563743));
#1408=CARTESIAN_POINT('',(-2.5,-8.29512903356415,-39.5733029708628));
#1409=CARTESIAN_POINT('Origin',(-2.49999999999991,-10.4006237754496,-35.5962573473011));
#1410=CARTESIAN_POINT('',(-2.5,-9.1789169499112,-40.0411906912819));
#1411=CARTESIAN_POINT('',(-2.5,-8.29512903356415,-39.5733029708628));
#1412=CARTESIAN_POINT('',(-2.5,-11.2064304049803,-39.4173403975411));
#1413=CARTESIAN_POINT('Origin',(-2.49999999999996,-9.88074853053983,-38.7155088167614));
#1414=CARTESIAN_POINT('',(-2.5,-19.5806893141021,-23.5992957914221));
#1415=CARTESIAN_POINT('',(-2.5,-11.2064304049803,-39.4173403975411));
#1416=CARTESIAN_POINT('',(-2.5,-18.2519731083419,-14.645418575653));
#1417=CARTESIAN_POINT('Origin',(-2.5,-13.0000000000001,-20.));
#1418=CARTESIAN_POINT('',(-2.5,-26.3444443743128,-23.2530094168744));
#1419=CARTESIAN_POINT('Origin',(-2.5,-20.0703033307765,-23.7431017633523));
#1420=CARTESIAN_POINT('',(3.00000000005436,-11.6483243630221,-39.6512842579345));
#1421=CARTESIAN_POINT('',(3.00009953698799,-20.0223274768564,-23.8331083223607));
#1422=CARTESIAN_POINT('',(2.99999999996446,-11.648324363049,-39.6512842579487));
#1423=CARTESIAN_POINT('',(-2.0001040756521,-20.0223421052707,-23.8331157017587));
#1424=CARTESIAN_POINT('',(-2.00000000153481,-20.0224580919238,-23.8331733796806));
#1425=CARTESIAN_POINT('',(-2.00000000007358,-11.6483243630955,-39.6512842578027));
#1426=CARTESIAN_POINT('',(-2.00000000001489,-11.6483243631195,-39.6512842578154));
#1427=CARTESIAN_POINT('',(-2.00000000001489,-11.6483243631195,-39.6512842578154));
#1428=CARTESIAN_POINT('Origin',(-3.19205310370001,-12.9999999999999,-20.));
#1429=CARTESIAN_POINT('',(3.0002875737286,-18.6076035710836,-14.2944054156616));
#1430=CARTESIAN_POINT('Ctrl Pts',(3.00065015409932,-20.022021231962,-23.8329124458919));
#1431=CARTESIAN_POINT('Ctrl Pts',(3.00065015409932,-20.4237827998591,-23.0968720849952));
#1432=CARTESIAN_POINT('Ctrl Pts',(3.00065015409933,-20.7073312022958,-22.3022192966393));
#1433=CARTESIAN_POINT('Ctrl Pts',(3.00065015409933,-21.0267401827867,-20.6032350456754));
#1434=CARTESIAN_POINT('Ctrl Pts',(3.00065015409933,-21.0440419373708,-19.7070157135369));
#1435=CARTESIAN_POINT('Ctrl Pts',(3.00065015409933,-20.783595197919,-17.9507786561881));
#1436=CARTESIAN_POINT('Ctrl Pts',(3.00065015409933,-20.5092837473169,-17.1027047228001));
#1437=CARTESIAN_POINT('Ctrl Pts',(3.00065015409932,-19.7134567886315,-15.568215646574));
#1438=CARTESIAN_POINT('Ctrl Pts',(3.00065015409931,-19.2092435696004,-14.8856571243238));
#1439=CARTESIAN_POINT('Ctrl Pts',(3.00065015409931,-18.6077901485842,-14.2945035580205));
#1440=CARTESIAN_POINT('',(-2.00026917706322,-18.6076410768866,-14.2944256658976));
#1441=CARTESIAN_POINT('',(-3.1920531037,-18.6081417836168,-14.2948491926286));
#1442=CARTESIAN_POINT('Ctrl Pts',(-2.00065015409933,-20.022021268551,-23.8329123788596));
#1443=CARTESIAN_POINT('Ctrl Pts',(-2.00065015409933,-20.423776093362,-23.0968843548105));
#1444=CARTESIAN_POINT('Ctrl Pts',(-2.00065015409933,-20.7073217580184,-22.302245793075));
#1445=CARTESIAN_POINT('Ctrl Pts',(-2.00065015409931,-21.0267377294502,-20.6032732958144));
#1446=CARTESIAN_POINT('Ctrl Pts',(-2.00065015409931,-21.0440436125398,-19.7070501640547));
#1447=CARTESIAN_POINT('Ctrl Pts',(-2.00065015409929,-20.7836050456209,-17.9508220363642));
#1448=CARTESIAN_POINT('Ctrl Pts',(-2.00065015409929,-20.5093033595955,-17.1027597810271));
#1449=CARTESIAN_POINT('Ctrl Pts',(-2.00065015409927,-19.7134890308178,-15.5682613896579));
#1450=CARTESIAN_POINT('Ctrl Pts',(-2.00065015409926,-19.2092699717944,-14.8856864709083));
#1451=CARTESIAN_POINT('Ctrl Pts',(-2.00065015409925,-18.607806536298,-14.2945196651419));
#1452=CARTESIAN_POINT('Origin',(-2.5,-10.6274584024405,-10.));
#1453=CARTESIAN_POINT('',(3.,-13.7053089788881,-10.));
#1454=CARTESIAN_POINT('',(3.,-10.6274584024405,-10.));
#1455=CARTESIAN_POINT('',(3.,-13.7053089788881,-10.));
#1456=CARTESIAN_POINT('',(-2.,-10.6274584024405,-10.));
#1457=CARTESIAN_POINT('',(-2.,-10.6274584024405,-10.));
#1458=CARTESIAN_POINT('',(-2.,-13.7053089788881,-10.));
#1459=CARTESIAN_POINT('',(-2.,-13.7053089788881,-10.));
#1460=CARTESIAN_POINT('',(-2.,-13.7053089788881,-10.));
#1461=CARTESIAN_POINT('Origin',(0.500000000000011,-10.4006237754496,-35.5962573473011));
#1462=CARTESIAN_POINT('',(3.,-5.98168419371451,-33.2568187452059));
#1463=CARTESIAN_POINT('',(3.00000000000001,-8.06118517335463,-40.0151969290364));
#1464=CARTESIAN_POINT('Origin',(3.0000000000002,-10.4006237754498,-35.5962573473011));
#1465=CARTESIAN_POINT('',(-1.99999999999999,-8.06118517335463,-40.0151969290364));
#1466=CARTESIAN_POINT('',(3.00000000000001,-8.06118517335463,-40.0151969290364));
#1467=CARTESIAN_POINT('',(-2.,-5.98168419371451,-33.2568187452059));
#1468=CARTESIAN_POINT('Origin',(-1.9999999999998,-10.4006237754499,-35.5962573473011));
#1469=CARTESIAN_POINT('',(3.,-5.98168419371451,-33.2568187452059));
#1470=CARTESIAN_POINT('Origin',(-7.49999999999998,-2.96640777323637,-28.2660163940696));
#1471=CARTESIAN_POINT('',(-1.99999999999999,-7.38534735497161,-30.6054549961647));
#1472=CARTESIAN_POINT('',(3.,-7.38534735497161,-30.6054549961647));
#1473=CARTESIAN_POINT('',(-1.99999999999999,-7.38534735497161,-30.6054549961647));
#1474=CARTESIAN_POINT('',(-2.00000000000001,-6.82548219371313,-25.0867799106947));
#1475=CARTESIAN_POINT('Origin',(-2.00000000000004,-2.96640777323635,-28.2660163940695));
#1476=CARTESIAN_POINT('',(2.99989807778082,-6.82554702588963,-25.0867263353906));
#1477=CARTESIAN_POINT('',(-2.,-6.82548207985891,-25.0867797724943));
#1478=CARTESIAN_POINT('Origin',(2.99999999999995,-2.9664077732363,-28.2660163940695));
#1479=CARTESIAN_POINT('Origin',(0.500000000000011,-9.88074853053981,-38.7155088167613));
#1480=CARTESIAN_POINT('',(3.,-8.94497308970172,-40.4830846494554));
#1481=CARTESIAN_POINT('Origin',(2.99999999998229,-9.88074853053981,-38.7155088167613));
#1482=CARTESIAN_POINT('',(-2.,-8.94497308970172,-40.4830846494554));
#1483=CARTESIAN_POINT('Origin',(-2.00000000000739,-9.88074853053981,-38.7155088167613));
#1484=CARTESIAN_POINT('',(-2.,-8.94497308970172,-40.4830846494554));
#1485=CARTESIAN_POINT('Origin',(0.49999999999999,-13.7053089788881,-12.0000000000002));
#1486=CARTESIAN_POINT('',(3.,-15.1624078716814,-10.6300135706436));
#1487=CARTESIAN_POINT('Origin',(2.9999999999992,-13.7053089788881,-12.0000000000002));
#1488=CARTESIAN_POINT('',(-2.,-15.1624078716814,-10.6300135706437));
#1489=CARTESIAN_POINT('Origin',(-2.0000000000008,-13.7053089788881,-12.));
#1490=CARTESIAN_POINT('',(-2.,-15.1624078716814,-10.6300135706437));
#1491=CARTESIAN_POINT('Origin',(-2.,-7.62745840244052,-3.08931449270773));
#1492=CARTESIAN_POINT('',(-2.,-7.62745840244051,-7.));
#1493=CARTESIAN_POINT('',(-2.,-7.62745840244051,-7.));
#1494=CARTESIAN_POINT('',(-2.,-7.62745840244051,-3.58931449270773));
#1495=CARTESIAN_POINT('Origin',(-2.,-1.26432547830288,-3.36713487602777));
#1496=CARTESIAN_POINT('',(-2.,-1.26432547830289,-9.69296265984073));
#1497=CARTESIAN_POINT('',(-2.00000000000001,-1.26432547830287,-3.86713487602779));
#1498=CARTESIAN_POINT('',(-2.,-1.26432547830289,-9.69296265984073));
#1499=CARTESIAN_POINT('Origin',(-2.44999999999727,-11.2643254783065,-9.69296265984067));
#1500=CARTESIAN_POINT('',(-1.99999999999999,-1.9031299602659,-13.2097820286858));
#1501=CARTESIAN_POINT('Origin',(-2.00000000000197,-11.2643254783024,-9.69296265984075));
#1502=CARTESIAN_POINT('',(-2.5,-2.37118973583559,-13.033941060368));
#1503=CARTESIAN_POINT('Origin',(-2.5,-13.7053089788881,-10.5));
#1504=CARTESIAN_POINT('',(-2.,-13.7053089788881,-10.));
#1505=CARTESIAN_POINT('',(-2.5,-10.6274584024405,-10.5));
#1506=CARTESIAN_POINT('Ctrl Pts',(-2.5,-19.5806893141021,-23.5992957914221));
#1507=CARTESIAN_POINT('Ctrl Pts',(-2.5,-22.4979629897791,-18.2655658574748));
#1508=CARTESIAN_POINT('Ctrl Pts',(-2.5,-17.883840246644,-14.3071530419177));
#1509=CARTESIAN_POINT('Ctrl Pts',(-2.,-20.0225832722757,-23.8332396516316));
#1510=CARTESIAN_POINT('Ctrl Pts',(-2.,-23.1294713349118,-18.1413492089835));
#1511=CARTESIAN_POINT('Ctrl Pts',(-2.,-18.2042093230204,-13.9232733017624));
#1512=CARTESIAN_POINT('',(-2.00007082112463,-20.0225206814215,-23.833206515297));
#1513=CARTESIAN_POINT('Ctrl Pts',(-2.0002555233536,-18.6074270084542,-14.2942445944282));
#1514=CARTESIAN_POINT('Ctrl Pts',(-2.08364475127852,-18.5504909051014,-14.3551769581742));
#1515=CARTESIAN_POINT('Ctrl Pts',(-2.16701255080243,-18.4932306497225,-14.4157619423928));
#1516=CARTESIAN_POINT('Ctrl Pts',(-2.29213508201088,-18.4027056826169,-14.5021828023903));
#1517=CARTESIAN_POINT('Ctrl Pts',(-2.33387158730077,-18.373460257219,-14.5319437631525));
#1518=CARTESIAN_POINT('Ctrl Pts',(-2.39646300950934,-18.3280041745427,-14.5750067544197));
#1519=CARTESIAN_POINT('Ctrl Pts',(-2.41733134749425,-18.3134010048223,-14.5899064811274));
#1520=CARTESIAN_POINT('Ctrl Pts',(-2.44876894268973,-18.2906801213427,-14.6116439291263));
#1521=CARTESIAN_POINT('Ctrl Pts',(-2.45934403310131,-18.283275406411,-14.6191899469173));
#1522=CARTESIAN_POINT('Ctrl Pts',(-2.47520455562262,-18.2718953863822,-14.6302380236045));
#1523=CARTESIAN_POINT('Ctrl Pts',(-2.48049182919248,-18.2681699482745,-14.6339879858407));
#1524=CARTESIAN_POINT('Ctrl Pts',(-2.48842231698392,-18.2625272077861,-14.6395587479776));
#1525=CARTESIAN_POINT('Ctrl Pts',(-2.49106582062984,-18.260646916983,-14.6414162907543));
#1526=CARTESIAN_POINT('Ctrl Pts',(-2.49635295689142,-18.2569161654081,-14.6451608409323));
#1527=CARTESIAN_POINT('Ctrl Pts',(-2.49735675612435,-18.2538721944494,-14.6435798204079));
#1528=CARTESIAN_POINT('Ctrl Pts',(-2.5,-18.2519733075487,-14.6454187765087));
#1529=CARTESIAN_POINT('Origin',(-2.5,-11.2064304049002,-39.4173403976923));
#1530=CARTESIAN_POINT('',(-2.00000438303517,-11.648320489446,-39.6512822070471));
#1531=CARTESIAN_POINT('Origin',(-2.45000000000002,-10.6274584024406,-6.99999999999998));
#1532=CARTESIAN_POINT('Origin',(-1.99999999999996,-10.6274584024405,-7.));
#1533=CARTESIAN_POINT('Origin',(-2.5,-2.37118973616775,-13.0339410602436));
#1534=CARTESIAN_POINT('',(-2.,-5.51104358557041,-22.8134554950761));
#1535=CARTESIAN_POINT('',(-1.99999999999999,-1.9031299602659,-13.2097820286858));
#1536=CARTESIAN_POINT('',(-2.5,-5.97910336147226,-22.6376145266338));
#1537=CARTESIAN_POINT('Origin',(-2.5,-7.82724131314514,-30.8393988563743));
#1538=CARTESIAN_POINT('',(-1.99999999999999,-7.38534735497161,-30.6054549961647));
#1539=CARTESIAN_POINT('',(-1.99999999999999,-7.38534735497161,-30.6054549961647));
#1540=CARTESIAN_POINT('',(-2.5,-6.42357815188803,-33.4907626054155));
#1541=CARTESIAN_POINT('Origin',(-2.4500000000001,-10.4006237754495,-35.596257347301));
#1542=CARTESIAN_POINT('',(-1.99999999999999,-8.06118517335463,-40.0151969290364));
#1543=CARTESIAN_POINT('Origin',(-2.4500000000015,-12.9999999999984,-20.0000000000016));
#1544=CARTESIAN_POINT('Origin',(-2.,-12.9999999999995,-20.0000000000003));
#1545=CARTESIAN_POINT('',(-2.50000000000001,-7.21138976114748,-24.7688564145563));
#1546=CARTESIAN_POINT('Origin',(-2.44999999999881,-2.96640777323763,-28.2660163940695));
#1547=CARTESIAN_POINT('Origin',(-2.5,-8.29512903356415,-39.5733029708629));
#1548=CARTESIAN_POINT('',(-1.99999999999999,-8.06118517335463,-40.0151969290364));
#1549=CARTESIAN_POINT('',(-2.5,-9.1789169499112,-40.0411906912819));
#1550=CARTESIAN_POINT('Origin',(-2.45000000000015,-9.8807485305396,-38.7155088167615));
#1551=CARTESIAN_POINT('Origin',(-2.5,-18.5942081757133,-15.0099638349039));
#1552=CARTESIAN_POINT('',(-2.,-18.6074933568828,-14.2941595347927));
#1553=CARTESIAN_POINT('',(-2.5,-14.7981331484831,-10.9725101779827));
#1554=CARTESIAN_POINT('Origin',(-2.45000000000079,-13.7053089788883,-11.9999999999992));
#1555=CARTESIAN_POINT('Origin',(-2.56,-7.62745840244049,-7.04661876363747));
#1556=CARTESIAN_POINT('',(3.,-7.6274584024405,-7.));
#1557=CARTESIAN_POINT('',(-2.,-7.62745840244051,-7.));
#1558=CARTESIAN_POINT('',(3.,-7.6274584024405,-4.59026717787104));
#1559=CARTESIAN_POINT('Origin',(-2.56,-1.26432547830287,-9.7637328462434));
#1560=CARTESIAN_POINT('',(2.99999999999999,-1.26432547830289,-9.69296265984071));
#1561=CARTESIAN_POINT('',(3.,-1.26432547830288,-4.86808756119109));
#1562=CARTESIAN_POINT('',(-2.,-1.26432547830289,-9.69296265984073));
#1563=CARTESIAN_POINT('Origin',(3.5,-21.1975010574666,-41.0784047704503));
#1564=CARTESIAN_POINT('',(3.49999999927821,-6.4235781486016,-33.4907626036725));
#1565=CARTESIAN_POINT('',(3.5,-7.8272413134918,-30.8393988565577));
#1566=CARTESIAN_POINT('',(3.49999999850089,-6.42357815056442,-33.4907626047116));
#1567=CARTESIAN_POINT('',(3.50000000000241,-7.21153316616711,-24.7687383429696));
#1568=CARTESIAN_POINT('Origin',(3.49999999953761,-2.96640777365414,-28.2660163938495));
#1569=CARTESIAN_POINT('',(3.49988626692484,-5.97934468266591,-22.6375238721507));
#1570=CARTESIAN_POINT('Origin',(3.50000000000724,-12.9999999999901,-20.0000000000068));
#1571=CARTESIAN_POINT('',(3.5,-2.37118973583582,-13.0339410603686));
#1572=CARTESIAN_POINT('',(3.5,-9.95571518960711,-33.2227020498334));
#1573=CARTESIAN_POINT('',(3.49999999994087,-1.76432547788906,-9.69296265984102));
#1574=CARTESIAN_POINT('Origin',(3.49999999999955,-11.2643254783026,-9.69296265984074));
#1575=CARTESIAN_POINT('',(3.5,-1.76432547830288,-5.34673343231851));
#1576=CARTESIAN_POINT('',(3.5,-7.1274584024405,-7.));
#1577=CARTESIAN_POINT('',(3.5,-7.12745840244051,-5.11257399190695));
#1578=CARTESIAN_POINT('',(3.5,-10.6274584024405,-10.5));
#1579=CARTESIAN_POINT('Origin',(3.50000000000002,-10.6274584024405,-7.00000000000001));
#1580=CARTESIAN_POINT('',(3.5,-13.7053089788881,-10.5));
#1581=CARTESIAN_POINT('',(3.5,-13.7053089788881,-10.5));
#1582=CARTESIAN_POINT('',(3.5,-14.798133148483,-10.9725101779827));
#1583=CARTESIAN_POINT('Origin',(3.49999999999973,-13.705308978888,-12.0000000000002));
#1584=CARTESIAN_POINT('',(3.5,-18.253265934707,-14.6467391748994));
#1585=CARTESIAN_POINT('',(3.5,-23.8116699421118,-20.5591850535272));
#1586=CARTESIAN_POINT('',(3.5,-19.5806893141021,-23.5992957914221));
#1587=CARTESIAN_POINT('Origin',(3.5,-13.0000000000002,-20.));
#1588=CARTESIAN_POINT('',(3.5,-11.2064304049309,-39.4173403976344));
#1589=CARTESIAN_POINT('',(3.5,-11.2064304049309,-39.4173403976344));
#1590=CARTESIAN_POINT('',(3.5,-9.17891694991123,-40.0411906912819));
#1591=CARTESIAN_POINT('Origin',(3.50000000000004,-9.88074853053983,-38.7155088167613));
#1592=CARTESIAN_POINT('',(3.49999999927819,-8.29512903182108,-39.5733029741492));
#1593=CARTESIAN_POINT('',(3.49999999999999,-9.17891694991123,-40.0411906912819));
#1594=CARTESIAN_POINT('Origin',(3.50000000000007,-10.4006237754496,-35.5962573473012));
#1595=CARTESIAN_POINT('Origin',(-2.5,-3.64224559161935,-37.6757583269412));
#1596=CARTESIAN_POINT('',(3.,-5.98168419371451,-33.2568187452059));
#1597=CARTESIAN_POINT('Origin',(-2.50000000000002,-10.6274584024405,-7.00000000000001));
#1598=CARTESIAN_POINT('Origin',(3.00000000000004,-10.6274584024405,-6.99999999999999));
#1599=CARTESIAN_POINT('Origin',(0.500000000000065,-11.2643254783032,-9.69296265984072));
#1600=CARTESIAN_POINT('',(3.,-1.9031299602659,-13.2097820286858));
#1601=CARTESIAN_POINT('',(-1.99999999999999,-1.9031299602659,-13.2097820286858));
#1602=CARTESIAN_POINT('Origin',(2.99999999999865,-11.2643254783025,-9.69296265984074));
#1603=CARTESIAN_POINT('Origin',(-2.49999999999965,-5.51104358557041,-22.8134554950761));
#1604=CARTESIAN_POINT('',(2.99990072860022,-5.5113219894591,-22.8133509041426));
#1605=CARTESIAN_POINT('',(3.,-5.51104358557039,-22.813455495076));
#1606=CARTESIAN_POINT('',(3.,-5.51104358557042,-22.8134554950761));
#1607=CARTESIAN_POINT('Origin',(-3.19205310370001,-12.9999999999999,-20.));
#1608=CARTESIAN_POINT('Origin',(2.9996036986696,-12.9999999999999,-20.));
#1609=CARTESIAN_POINT('Origin',(-2.5,-10.7125489223958,-41.4188600902935));
#1610=CARTESIAN_POINT('',(3.,-8.94497308970172,-40.4830846494554));
#1611=CARTESIAN_POINT('Origin',(-2.5,-14.5700595785346,-10.));
#1612=CARTESIAN_POINT('',(3.,-15.1624078716814,-10.6300135706436));
#1613=CARTESIAN_POINT('Origin',(3.,-7.62745840244051,-4.09026717787104));
#1614=CARTESIAN_POINT('',(3.,-7.6274584024405,-7.));
#1615=CARTESIAN_POINT('Origin',(3.,-1.26432547830288,-4.36808756119109));
#1616=CARTESIAN_POINT('',(2.99999999999999,-1.26432547830289,-9.69296265984071));
#1617=CARTESIAN_POINT('Origin',(3.5,-13.7053089788881,-10.5));
#1618=CARTESIAN_POINT('',(3.5,-10.6274584024405,-10.5));
#1619=CARTESIAN_POINT('',(3.5,-13.7053089788881,-10.5));
#1620=CARTESIAN_POINT('Ctrl Pts',(3.5,-19.5806893141021,-23.5992957914221));
#1621=CARTESIAN_POINT('Ctrl Pts',(3.,-20.0225832722757,-23.8332396516316));
#1622=CARTESIAN_POINT('Ctrl Pts',(3.5,-22.4972283736148,-18.2669089759686));
#1623=CARTESIAN_POINT('Ctrl Pts',(3.,-23.1286889708126,-18.1427825180211));
#1624=CARTESIAN_POINT('Ctrl Pts',(3.5,-17.8852427233924,-14.308356513587));
#1625=CARTESIAN_POINT('Ctrl Pts',(3.,-18.2057063717751,-13.924555718818));
#1626=CARTESIAN_POINT('Ctrl Pts',(3.00027895411058,-18.6073839849074,-14.2942243584003));
#1627=CARTESIAN_POINT('Ctrl Pts',(3.08368437509193,-18.5537918573724,-14.3584743015728));
#1628=CARTESIAN_POINT('Ctrl Pts',(3.1669578864631,-18.4924411146751,-14.4149195657098));
#1629=CARTESIAN_POINT('Ctrl Pts',(3.29202244731115,-18.402846105994,-14.5021889874866));
#1630=CARTESIAN_POINT('Ctrl Pts',(3.33374511832693,-18.3738174495575,-14.532148894318));
#1631=CARTESIAN_POINT('Ctrl Pts',(3.39632490033208,-18.3293888026944,-14.5762124578499));
#1632=CARTESIAN_POINT('Ctrl Pts',(3.41718354005415,-18.3143499072528,-14.5906731900463));
#1633=CARTESIAN_POINT('Ctrl Pts',(3.44859480323186,-18.2921847633988,-14.6129233581473));
#1634=CARTESIAN_POINT('Ctrl Pts',(3.45914512225177,-18.284631576637,-14.6202901629955));
#1635=CARTESIAN_POINT('Ctrl Pts',(3.47497097980395,-18.2733646578402,-14.631402650463));
#1636=CARTESIAN_POINT('Ctrl Pts',(3.48024668910166,-18.2696841578971,-14.6351812100475));
#1637=CARTESIAN_POINT('Ctrl Pts',(3.48815940229343,-18.2640130845864,-14.6407002039292));
#1638=CARTESIAN_POINT('Ctrl Pts',(3.49079718939091,-18.2621618171739,-14.6425785663744));
#1639=CARTESIAN_POINT('Ctrl Pts',(3.4960724125868,-18.2583965751858,-14.6462732072903));
#1640=CARTESIAN_POINT('Ctrl Pts',(3.49736230109937,-18.2551619595034,-14.6449048679872));
#1641=CARTESIAN_POINT('Ctrl Pts',(3.5,-18.2532661521094,-14.6467393931054));
#1642=CARTESIAN_POINT('',(3.5,-19.5806893141021,-23.5992957914221));
#1643=CARTESIAN_POINT('Origin',(3.5,-11.2064304048015,-39.4173403978789));
#1644=CARTESIAN_POINT('',(3.00000597574711,-11.6483190817559,-39.65128146197));
#1645=CARTESIAN_POINT('Origin',(3.4500000000008,-10.4006237754488,-35.5962573473011));
#1646=CARTESIAN_POINT('',(3.5,-8.29512903215881,-39.5733029735113));
#1647=CARTESIAN_POINT('',(3.5,-6.42357814923952,-33.4907626040102));
#1648=CARTESIAN_POINT('Origin',(3.44999999999982,-2.96640777323651,-28.2660163940696));
#1649=CARTESIAN_POINT('',(3.,-7.38534735497161,-30.6054549961647));
#1650=CARTESIAN_POINT('',(3.5,-7.21153316619494,-24.768738343002));
#1651=CARTESIAN_POINT('Origin',(3.45000000000028,-9.88074853053978,-38.7155088167616));
#1652=CARTESIAN_POINT('',(3.5,-9.17891694991123,-40.0411906912819));
#1653=CARTESIAN_POINT('Origin',(3.44999999999996,-13.7053089788881,-11.9999999999998));
#1654=CARTESIAN_POINT('',(3.5,-14.798133148483,-10.9725101779827));
#1655=CARTESIAN_POINT('Origin',(3.04999999999472,-11.2643254783066,-9.69296265983947));
#1656=CARTESIAN_POINT('',(3.,-1.9031299602659,-13.2097820286858));
#1657=CARTESIAN_POINT('Origin',(3.05,-10.6274584024405,-7.00000000000003));
#1658=CARTESIAN_POINT('Origin',(3.,-5.51104358557041,-22.8134554950761));
#1659=CARTESIAN_POINT('',(3.49990712138191,-5.97936420379055,-22.6375165379182));
#1660=CARTESIAN_POINT('Origin',(3.,-5.98168419371451,-33.2568187452059));
#1661=CARTESIAN_POINT('Origin',(3.05000000001054,-12.9999999999906,-20.0000000000064));
#1662=CARTESIAN_POINT('Origin',(3.,-8.94497308970172,-40.4830846494554));
#1663=CARTESIAN_POINT('Origin',(3.,-15.1624078716814,-10.6300135706436));
#1664=UNCERTAINTY_MEASURE_WITH_UNIT(LENGTH_MEASURE(0.001),#1668,
'DISTANCE_ACCURACY_VALUE',
'Maximum model space distance between geometric entities at asserted c
onnectivities');
#1665=UNCERTAINTY_MEASURE_WITH_UNIT(LENGTH_MEASURE(0.001),#1668,
'DISTANCE_ACCURACY_VALUE',
'Maximum model space distance between geometric entities at asserted c
onnectivities');
#1666=(
GEOMETRIC_REPRESENTATION_CONTEXT(3)
GLOBAL_UNCERTAINTY_ASSIGNED_CONTEXT((#1664))
GLOBAL_UNIT_ASSIGNED_CONTEXT((#1668,#1670,#1671))
REPRESENTATION_CONTEXT('','3D')
);
#1667=(
GEOMETRIC_REPRESENTATION_CONTEXT(3)
GLOBAL_UNCERTAINTY_ASSIGNED_CONTEXT((#1665))
GLOBAL_UNIT_ASSIGNED_CONTEXT((#1668,#1670,#1671))
REPRESENTATION_CONTEXT('','3D')
);
#1668=(
LENGTH_UNIT()
NAMED_UNIT(*)
SI_UNIT(.CENTI.,.METRE.)
);
#1669=(
LENGTH_UNIT()
NAMED_UNIT(*)
SI_UNIT($,.METRE.)
);
#1670=(
NAMED_UNIT(*)
PLANE_ANGLE_UNIT()
SI_UNIT($,.RADIAN.)
);
#1671=(
NAMED_UNIT(*)
SI_UNIT($,.STERADIAN.)
SOLID_ANGLE_UNIT()
);
#1672=SHAPE_DEFINITION_REPRESENTATION(#1673,#1674);
#1673=PRODUCT_DEFINITION_SHAPE('',$,#1676);
#1674=SHAPE_REPRESENTATION('',(#966),#1666);
#1675=PRODUCT_DEFINITION_CONTEXT('part definition',#1680,'design');
#1676=PRODUCT_DEFINITION('Document','(Unsaved)',#1677,#1675);
#1677=PRODUCT_DEFINITION_FORMATION('',$,#1682);
#1678=PRODUCT_RELATED_PRODUCT_CATEGORY('(Unsaved)','(Unsaved)',(#1682));
#1679=APPLICATION_PROTOCOL_DEFINITION('international standard',
'automotive_design',2009,#1680);
#1680=APPLICATION_CONTEXT(
'Core Data for Automotive Mechanical Design Process');
#1681=PRODUCT_CONTEXT('part definition',#1680,'mechanical');
#1682=PRODUCT('Document','(Unsaved)',$,(#1681));
#1683=PRESENTATION_STYLE_ASSIGNMENT((#1685));
#1684=PRESENTATION_STYLE_ASSIGNMENT((#1686));
#1685=SURFACE_STYLE_USAGE(.BOTH.,#1687);
#1686=SURFACE_STYLE_USAGE(.BOTH.,#1688);
#1687=SURFACE_SIDE_STYLE('',(#1689));
#1688=SURFACE_SIDE_STYLE('',(#1690));
#1689=SURFACE_STYLE_FILL_AREA(#1691);
#1690=SURFACE_STYLE_FILL_AREA(#1692);
#1691=FILL_AREA_STYLE('Steel - Satin',(#1693));
#1692=FILL_AREA_STYLE('Opaque(63,63,63)',(#1694));
#1693=FILL_AREA_STYLE_COLOUR('Steel - Satin',#1695);
#1694=FILL_AREA_STYLE_COLOUR('Opaque(63,63,63)',#1696);
#1695=COLOUR_RGB('Steel - Satin',0.627450980392157,0.627450980392157,0.627450980392157);
#1696=COLOUR_RGB('Opaque(63,63,63)',0.250980392156863,0.250980392156863,
0.250980392156863);
ENDSEC;
END-ISO-10303-21;
